<svg width="24" height="24" viewBox="0 0 24 24" fill="none" xmlns="http://www.w3.org/2000/svg">
<g clip-path="url(#clip0_536_5517)">
<path d="M12.0058 0.181824C7.07103 0.181824 5.6278 0.186915 5.34726 0.210187C4.33457 0.294369 3.7044 0.453824 3.01788 0.795642C2.4888 1.05837 2.07154 1.36291 1.65974 1.78982C0.909762 2.56837 0.45523 3.52619 0.29069 4.66473C0.210692 5.21746 0.18742 5.33019 0.182693 8.15346C0.180875 9.09455 0.182693 10.3331 0.182693 11.9944C0.182693 16.9253 0.188147 18.3671 0.211783 18.6471C0.293599 19.6326 0.448139 20.2526 0.775402 20.9307C1.40084 22.2289 2.59535 23.2035 4.00258 23.5671C4.48984 23.6926 5.028 23.7616 5.71889 23.7944C6.01161 23.8071 8.99515 23.8162 11.9805 23.8162C14.9659 23.8162 17.9512 23.8126 18.2367 23.798C19.0367 23.7604 19.5012 23.698 20.0148 23.5653C21.4311 23.1998 22.6038 22.2398 23.242 20.9235C23.5629 20.2616 23.7256 19.618 23.7993 18.684C23.8152 18.4804 23.822 15.2336 23.822 11.9913C23.822 8.74837 23.8147 5.50764 23.7987 5.30401C23.7242 4.35491 23.5614 3.71673 23.2302 3.04219C22.9584 2.49001 22.6566 2.07764 22.2184 1.65601C21.4364 0.909096 20.4801 0.454551 19.3405 0.290187C18.7883 0.210369 18.6783 0.186733 15.8529 0.181824H12.0058Z" fill="url(#paint0_radial_536_5517)"/>
<path d="M12.0058 0.181824C7.07103 0.181824 5.6278 0.186915 5.34726 0.210187C4.33457 0.294369 3.7044 0.453824 3.01788 0.795642C2.4888 1.05837 2.07154 1.36291 1.65974 1.78982C0.909762 2.56837 0.45523 3.52619 0.29069 4.66473C0.210692 5.21746 0.18742 5.33019 0.182693 8.15346C0.180875 9.09455 0.182693 10.3331 0.182693 11.9944C0.182693 16.9253 0.188147 18.3671 0.211783 18.6471C0.293599 19.6326 0.448139 20.2526 0.775402 20.9307C1.40084 22.2289 2.59535 23.2035 4.00258 23.5671C4.48984 23.6926 5.028 23.7616 5.71889 23.7944C6.01161 23.8071 8.99515 23.8162 11.9805 23.8162C14.9659 23.8162 17.9512 23.8126 18.2367 23.798C19.0367 23.7604 19.5012 23.698 20.0148 23.5653C21.4311 23.1998 22.6038 22.2398 23.242 20.9235C23.5629 20.2616 23.7256 19.618 23.7993 18.684C23.8152 18.4804 23.822 15.2336 23.822 11.9913C23.822 8.74837 23.8147 5.50764 23.7987 5.30401C23.7242 4.35491 23.5614 3.71673 23.2302 3.04219C22.9584 2.49001 22.6566 2.07764 22.2184 1.65601C21.4364 0.909096 20.4801 0.454551 19.3405 0.290187C18.7883 0.210369 18.6783 0.186733 15.8529 0.181824H12.0058Z" fill="url(#paint1_radial_536_5517)"/>
<path d="M12.0004 3.27271C9.63033 3.27271 9.33289 3.28307 8.402 3.32543C7.47294 3.36798 6.83878 3.51507 6.28389 3.73089C5.7099 3.9538 5.22301 4.25198 4.73793 4.73725C4.25249 5.22234 3.95432 5.70925 3.73069 6.28307C3.51433 6.83816 3.36707 7.47252 3.32525 8.40125C3.28361 9.33216 3.27271 9.6298 3.27271 12C3.27271 14.3702 3.28325 14.6667 3.32543 15.5976C3.36816 16.5267 3.51524 17.1609 3.73087 17.7158C3.95396 18.2898 4.25213 18.7767 4.73739 19.2618C5.22228 19.7473 5.70918 20.0462 6.2828 20.2691C6.83805 20.4849 7.4724 20.632 8.40128 20.6745C9.33216 20.7169 9.62942 20.7273 11.9993 20.7273C14.3696 20.7273 14.6662 20.7169 15.5971 20.6745C16.5261 20.632 17.161 20.4849 17.7163 20.2691C18.2901 20.0462 18.7762 19.7473 19.2611 19.2618C19.7466 18.7767 20.0447 18.2898 20.2684 17.716C20.4829 17.1609 20.6302 16.5265 20.6738 15.5978C20.7156 14.6669 20.7265 14.3702 20.7265 12C20.7265 9.6298 20.7156 9.33234 20.6738 8.40143C20.6302 7.47234 20.4829 6.83816 20.2684 6.28325C20.0447 5.70925 19.7466 5.22234 19.2611 4.73725C18.7757 4.2518 18.2903 3.95361 17.7157 3.73089C17.1594 3.51507 16.5248 3.36798 15.5958 3.32543C14.6649 3.28307 14.3686 3.27271 11.9977 3.27271H12.0004ZM11.2176 4.84543C11.4499 4.84507 11.7092 4.84543 12.0004 4.84543C14.3306 4.84543 14.6067 4.8538 15.5269 4.89561C16.3778 4.93452 16.8396 5.07671 17.1472 5.19616C17.5545 5.35434 17.8448 5.54343 18.1501 5.84889C18.4555 6.15434 18.6446 6.44525 18.8031 6.85252C18.9226 7.1598 19.065 7.62161 19.1037 8.47252C19.1455 9.39252 19.1546 9.66889 19.1546 11.998C19.1546 14.3271 19.1455 14.6034 19.1037 15.5234C19.0648 16.3743 18.9226 16.8362 18.8031 17.1434C18.645 17.5507 18.4555 17.8407 18.1501 18.146C17.8446 18.4514 17.5546 18.6405 17.1472 18.7987C16.8399 18.9187 16.3778 19.0605 15.5269 19.0994C14.6069 19.1413 14.3306 19.1503 12.0004 19.1503C9.67015 19.1503 9.39397 19.1413 8.474 19.0994C7.62312 19.0602 7.16131 18.918 6.85351 18.7985C6.44625 18.6403 6.15534 18.4513 5.8499 18.1458C5.54445 17.8403 5.35537 17.5502 5.19683 17.1427C5.07738 16.8354 4.93502 16.3736 4.89629 15.5227C4.85448 14.6027 4.84611 14.3263 4.84611 11.9958C4.84611 9.66525 4.85448 9.39034 4.89629 8.47034C4.9352 7.61943 5.07738 7.15761 5.19683 6.84998C5.35501 6.44271 5.54445 6.1518 5.8499 5.84634C6.15534 5.54089 6.44625 5.3518 6.85351 5.19325C7.16113 5.07325 7.62312 4.93143 8.474 4.89234C9.27907 4.85598 9.59106 4.84507 11.2176 4.84325V4.84543ZM16.6588 6.29452C16.0807 6.29452 15.6116 6.76307 15.6116 7.34143C15.6116 7.91961 16.0807 8.38871 16.6588 8.38871C17.237 8.38871 17.7061 7.91961 17.7061 7.34143C17.7061 6.76325 17.237 6.29416 16.6588 6.29416V6.29452ZM12.0004 7.51816C9.52542 7.51816 7.51876 9.52489 7.51876 12C7.51876 14.4751 9.52542 16.4809 12.0004 16.4809C14.4755 16.4809 16.4814 14.4751 16.4814 12C16.4814 9.52489 14.4753 7.51816 12.0003 7.51816H12.0004ZM12.0004 9.09089C13.6069 9.09089 14.9094 10.3933 14.9094 12C14.9094 13.6065 13.6069 14.9091 12.0004 14.9091C10.3938 14.9091 9.09144 13.6065 9.09144 12C9.09144 10.3933 10.3938 9.09089 12.0004 9.09089V9.09089Z" fill="white"/>
</g>
<defs>
<radialGradient id="paint0_radial_536_5517" cx="0" cy="0" r="1" gradientUnits="userSpaceOnUse" gradientTransform="translate(6.46131 25.6365) rotate(-90) scale(23.4234 21.7909)">
<stop stop-color="#FFDD55"/>
<stop offset="0.1" stop-color="#FFDD55"/>
<stop offset="0.5" stop-color="#FF543E"/>
<stop offset="1" stop-color="#C837AB"/>
</radialGradient>
<radialGradient id="paint1_radial_536_5517" cx="0" cy="0" r="1" gradientUnits="userSpaceOnUse" gradientTransform="translate(-3.77796 1.8844) rotate(78.678) scale(10.4705 43.1693)">
<stop stop-color="#3771C8"/>
<stop offset="0.128" stop-color="#3771C8"/>
<stop offset="1" stop-color="#6600FF" stop-opacity="0"/>
</radialGradient>
<clipPath id="clip0_536_5517">
<rect width="24" height="24" fill="white"/>
</clipPath>
</defs>
</svg>
