<svg width="24" height="24" viewBox="0 0 24 24" fill="none" xmlns="http://www.w3.org/2000/svg">
<g clip-path="url(#clip0_536_5524)">
<path fill-rule="evenodd" clip-rule="evenodd" d="M5.41992 0H18.5801C20.0163 0.00414176 21.3924 0.579159 22.408 1.59943C23.4235 2.6197 23.9959 4.0023 24 5.44518V18.5568C23.9954 19.9993 23.4228 21.3814 22.4073 22.4013C21.3918 23.4211 20.0159 23.9959 18.5801 24H5.41992C3.98407 23.9959 2.60818 23.4211 1.5927 22.4013C0.577215 21.3814 0.00463752 19.9993 0 18.5568V5.44518C0.00412255 4.0023 0.576472 2.6197 1.59201 1.59943C2.60755 0.579159 3.98374 0.00414176 5.41992 0V0Z" fill="#1CA1F1"/>
<path fill-rule="evenodd" clip-rule="evenodd" d="M20.0293 6.99731C19.4289 7.2656 18.7914 7.44092 18.1387 7.5173C18.8251 7.10375 19.3398 6.455 19.5879 5.69047C18.9409 6.07552 18.2336 6.34755 17.4961 6.49498C17.0443 6.01144 16.4584 5.67538 15.8142 5.53037C15.1701 5.38535 14.4974 5.43806 13.8835 5.68166C13.2695 5.92527 12.7425 6.34853 12.3708 6.8966C11.9991 7.44467 11.7998 8.09227 11.7988 8.75546C11.799 9.00898 11.8271 9.26169 11.8828 9.50896C10.5733 9.44281 9.29226 9.10062 8.12296 8.50462C6.95366 7.90863 5.92223 7.07216 5.0957 6.04955C4.80263 6.55465 4.64829 7.12887 4.64844 7.71352V7.71352C4.64884 8.25715 4.78274 8.79228 5.03826 9.27147C5.29378 9.75067 5.66303 10.1591 6.11328 10.4606C5.59036 10.4427 5.07907 10.3008 4.62109 10.0466V10.0898C4.61874 10.8555 4.88086 11.5984 5.36276 12.1917C5.84466 12.785 6.51648 13.1919 7.26367 13.3432C6.98033 13.4204 6.68812 13.46 6.39453 13.4609C6.18609 13.4596 5.9782 13.4392 5.77344 13.4001C5.98433 14.0571 6.39407 14.6316 6.94551 15.0435C7.49695 15.4554 8.16259 15.6842 8.84961 15.6978C7.46692 16.7865 5.71117 17.2804 3.9668 17.0714C5.47305 18.0447 7.22667 18.5611 9.01758 18.5588C15.0723 18.5588 18.3926 13.5158 18.3926 9.14006C18.3926 8.99486 18.3926 8.85358 18.3828 8.71033C19.0282 8.24454 19.5847 7.66556 20.0254 7.00123L20.0293 6.99731Z" fill="white"/>
</g>
<defs>
<clipPath id="clip0_536_5524">
<rect width="24" height="24" fill="white"/>
</clipPath>
</defs>
</svg>
