<svg width="24" height="24" viewBox="0 0 24 24" fill="none" xmlns="http://www.w3.org/2000/svg">
<g clip-path="url(#clip0_127_4844)">
<path d="M4 10.5V13V15.5M4 10.5V10C4 8.89543 4.89543 8 6 8H10M4 10.5H3C2.44772 10.5 2 10.9477 2 11.5V14.5C2 15.0523 2.44772 15.5 3 15.5H4M4 15.5V16C4 17.1046 4.89543 18 6 18H9.11978C9.70114 18 10.1724 17.5287 10.1724 16.9474V16.9474C10.1724 16.366 10.6437 15.8947 11.225 15.8947H13.2922C13.8735 15.8947 14.3448 16.366 14.3448 16.9474V16.9474C14.3448 17.5287 14.8161 18 15.3975 18H18C19.1046 18 20 17.1046 20 16V15.5M20 10.5V10C20 8.89543 19.1046 8 18 8H14M20 10.5V13V15.5M20 10.5H21C21.5523 10.5 22 10.9477 22 11.5V14.5C22 15.0523 21.5523 15.5 21 15.5H20M10 8H12H14M10 8V7C10 6.44772 10.4477 6 11 6H13C13.5523 6 14 6.44772 14 7V8" stroke="#2C75FF" stroke-width="1.5"/>
</g>
<defs>
<clipPath id="clip0_127_4844">
<rect width="24" height="24" fill="white"/>
</clipPath>
</defs>
</svg>
