<svg width="24" height="25" viewBox="0 0 24 25" fill="none" xmlns="http://www.w3.org/2000/svg">
<g clip-path="url(#clip0_150_3393)">
<g clip-path="url(#clip1_150_3393)">
<path d="M9 17.4998V3.1665L19 4.49984V17.4998" stroke="#2C75FF" stroke-width="2" stroke-linecap="round" stroke-linejoin="round"/>
<path d="M6 20.5C7.65685 20.5 9 19.1569 9 17.5C9 15.8431 7.65685 14.5 6 14.5C4.34315 14.5 3 15.8431 3 17.5C3 19.1569 4.34315 20.5 6 20.5Z" stroke="#2C75FF" stroke-width="2" stroke-linecap="round" stroke-linejoin="round"/>
<path d="M16 20.5C17.6569 20.5 19 19.1569 19 17.5C19 15.8431 17.6569 14.5 16 14.5C14.3431 14.5 13 15.8431 13 17.5C13 19.1569 14.3431 20.5 16 20.5Z" stroke="#2C75FF" stroke-width="2" stroke-linecap="round" stroke-linejoin="round"/>
</g>
</g>
<defs>
<clipPath id="clip0_150_3393">
<rect width="24" height="24" fill="white" transform="translate(0 0.5)"/>
</clipPath>
<clipPath id="clip1_150_3393">
<rect width="24" height="24" fill="white" transform="translate(0 0.5)"/>
</clipPath>
</defs>
</svg>
