<svg width="24" height="24" viewBox="0 0 24 24" fill="none" xmlns="http://www.w3.org/2000/svg">
<g clip-path="url(#clip0_75_1597)">
<ellipse cx="6.16667" cy="7.45441" rx="1.66667" ry="1.81818" fill="#EAEDF5" stroke="#828BA5" stroke-width="1.5"/>
<ellipse cx="13.6667" cy="5.63636" rx="3.33333" ry="3.63636" fill="#EAEDF5" stroke="#828BA5" stroke-width="1.5"/>
<path d="M2 10.5229C2 9.83259 2.55964 9.27295 3.25 9.27295H6.58333H9.91667H13.25H16.5833H16.6667C17.7712 9.27295 18.6667 10.1684 18.6667 11.2729V13.0002V13.3639V18.3639V18.6366V20.0002C18.6667 21.1048 17.7712 22.0002 16.6667 22.0002H3.81818C2.81403 22.0002 2 21.1862 2 20.182V18.6366V13.0002V10.5229Z" fill="#EAEDF5"/>
<path d="M2 13.0002V10.5229C2 9.83259 2.55964 9.27295 3.25 9.27295V9.27295H6.58333M2 13.0002C2 13.0002 3.26974 13.0002 4.08333 13.0002M2 13.0002V18.6366M18.6667 13.0002V11.2729C18.6667 10.1684 17.7712 9.27295 16.6667 9.27295H16.5833M18.6667 13.0002C18.6667 13.0002 17.9048 13.0002 17.4167 13.0002C16.1149 13.0002 15.3851 13.0002 14.0833 13.0002M18.6667 13.0002V13.3639M4.08333 13.0002C5.05964 11.9352 6.58333 9.27295 6.58333 9.27295M4.08333 13.0002C5.38508 13.0002 7.41667 13.0002 7.41667 13.0002M6.58333 9.27295H9.91667M7.41667 13.0002L9.91667 9.27295M7.41667 13.0002C7.41667 13.0002 9.44825 13.0002 10.75 13.0002M9.91667 9.27295H13.25M10.75 13.0002C11.7263 11.9352 13.25 9.27295 13.25 9.27295M10.75 13.0002C12.0517 13.0002 12.7816 13.0002 14.0833 13.0002M13.25 9.27295H16.5833M14.0833 13.0002C15.0596 11.9352 16.5833 9.27295 16.5833 9.27295M2 18.6366V20.182V20.182C2 21.1862 2.81403 22.0002 3.81818 22.0002H16.6667C17.7712 22.0002 18.6667 21.1048 18.6667 20.0002V18.6366M2 18.6366H10.3333H18.6667M18.6667 18.6366V18.3639M18.6667 13.3639L20.4367 12.157C21.1005 11.7044 22 12.1798 22 12.9833V18.9809C22 19.8245 21.0197 20.2891 20.3668 19.7548L18.6667 18.3639M18.6667 13.3639V18.3639" stroke="#828BA5" stroke-width="1.5" stroke-linejoin="round"/>
</g>
<defs>
<clipPath id="clip0_75_1597">
<rect width="24" height="24" fill="white"/>
</clipPath>
</defs>
</svg>
