<svg width="24" height="24" viewBox="0 0 24 24" fill="none" xmlns="http://www.w3.org/2000/svg">
<g clip-path="url(#clip0_59_189)">
<path d="M6.11535 5.19001L6.43435 7.10301C6.63987 8.33684 7.22585 9.47558 8.11035 10.36L9.75035 12L9.36335 12.775C9.14635 13.208 9.23135 13.731 9.57335 14.073L10.9214 15.421C11.1314 15.631 11.2504 15.918 11.2504 16.216V17.305C11.2504 17.731 11.4904 18.12 11.8724 18.311L12.0254 18.387C12.4584 18.604 12.9814 18.519 13.3234 18.177L14.0464 17.454C15.1612 16.3389 15.9521 14.9418 16.3344 13.412C16.3841 13.2137 16.3769 13.0054 16.3135 12.811C16.2502 12.6166 16.1333 12.444 15.9764 12.313L14.6464 11.205C14.3954 10.995 14.0644 10.906 13.7414 10.96L12.5714 11.155C12.3948 11.1844 12.2138 11.1712 12.0433 11.1166C11.8729 11.062 11.7179 10.9675 11.5914 10.841L11.2964 10.546C11.1919 10.4415 11.109 10.3175 11.0525 10.181C10.9959 10.0445 10.9668 9.89825 10.9668 9.75051C10.9668 9.60277 10.9959 9.45648 11.0525 9.31999C11.109 9.1835 11.1919 9.05948 11.2964 8.95501L11.4264 8.82301C11.5935 8.65587 11.8091 8.54562 12.0424 8.50793C12.2758 8.47023 12.5151 8.507 12.7264 8.61301L13.3294 8.91501C13.4813 8.99131 13.6534 9.01779 13.8213 8.9907C13.9891 8.9636 14.1442 8.88431 14.2644 8.76408C14.3847 8.64385 14.4639 8.4888 14.491 8.32094C14.5181 8.15309 14.4917 7.98096 14.4154 7.82901L14.2504 7.50001L15.5064 6.66301C16.1577 6.22845 16.6844 5.63145 17.0344 4.93101L17.1804 4.63901M6.11535 5.19001C4.69747 6.4153 3.69742 8.05262 3.25473 9.87355C2.81204 11.6945 2.9488 13.6082 3.64591 15.3476C4.34303 17.0871 5.56573 18.5656 7.14344 19.5768C8.72114 20.588 10.5752 21.0816 12.4468 20.9885C14.3185 20.8955 16.1144 20.2206 17.584 19.0579C19.0537 17.8952 20.1237 16.3027 20.6449 14.5027C21.1661 12.7026 21.1124 10.7848 20.4913 9.01678C19.8702 7.24873 18.7128 5.71765 17.1804 4.63901M6.11535 5.19001C7.74886 3.77442 9.83882 2.99668 12.0004 3.00001C13.9294 3.00001 15.7164 3.60601 17.1804 4.63901" stroke="#2C75FF" stroke-width="1.5" stroke-linecap="round" stroke-linejoin="round"/>
</g>
<defs>
<clipPath id="clip0_59_189">
<rect width="24" height="24" fill="white"/>
</clipPath>
</defs>
</svg>
