<svg width="194" height="50" viewBox="0 0 194 50" fill="none" xmlns="http://www.w3.org/2000/svg">
<rect x="15.7467" y="14.4429" width="33.3378" height="13.0311" rx="6.51554" transform="rotate(62.0548 15.7467 14.4429)" fill="url(#paint0_linear_30_4664)"/>
<rect x="6.51562" y="16.6147" width="33.3378" height="13.0311" rx="6.51554" fill="url(#paint1_linear_30_4664)"/>
<rect x="6.51562" width="41.3889" height="13.0311" rx="6.51554" transform="rotate(30 6.51562 0)" fill="url(#paint2_linear_30_4664)"/>
<rect x="2.06323" y="1.8457" width="44.1971" height="13.0311" rx="6.51554" fill="url(#paint3_linear_30_4664)"/>
<path d="M52.1785 45.9889C50.3324 45.9889 48.6674 45.6269 47.1833 44.903C45.7354 44.179 44.5951 43.2017 43.7626 41.971C42.9301 40.7403 42.5138 39.3467 42.5138 37.7902C42.5138 35.8355 43.0025 34.2971 43.9798 33.175C44.9933 32.0167 46.6403 31.2022 48.9207 30.7317C51.2374 30.2249 54.3504 29.9715 58.2597 29.9715H60.8116V33.3379H58.314C55.7078 33.3379 53.6445 33.4646 52.1242 33.718C50.6039 33.9713 49.518 34.4057 48.8664 35.0211C48.2511 35.6002 47.9434 36.4147 47.9434 37.4644C47.9434 38.8399 48.414 39.962 49.3551 40.8307C50.2962 41.6633 51.5993 42.0796 53.2644 42.0796C54.6037 42.0796 55.7802 41.7719 56.7937 41.1565C57.8072 40.505 58.6036 39.6362 59.1827 38.5503C59.7981 37.4644 60.1057 36.2156 60.1057 34.8039V28.5598C60.1057 26.4966 59.6714 25.0125 58.8026 24.1075C57.9339 23.2026 56.5041 22.7501 54.5132 22.7501C53.3549 22.7501 52.1423 22.8949 50.8754 23.1845C49.6447 23.4741 48.3597 23.9627 47.0204 24.6505C46.405 24.9401 45.8802 25.0306 45.4458 24.922C45.0114 24.8134 44.6675 24.5781 44.4142 24.2161C44.1608 23.818 44.016 23.4017 43.9798 22.9673C43.9798 22.4967 44.0884 22.0443 44.3056 21.6099C44.5589 21.1755 44.9752 20.8498 45.5544 20.6326C47.1471 19.8724 48.7217 19.3295 50.2781 19.0037C51.8346 18.6779 53.3006 18.515 54.6761 18.515C57.1014 18.515 59.0922 18.8951 60.6487 19.6553C62.2414 20.4154 63.4178 21.5737 64.178 23.1302C64.9381 24.6867 65.3182 26.6957 65.3182 29.1571V43.1112C65.3182 43.9799 65.101 44.6677 64.6666 45.1744C64.2323 45.645 63.5988 45.8803 62.7663 45.8803C61.9699 45.8803 61.3365 45.645 60.8659 45.1744C60.3953 44.6677 60.16 43.9799 60.16 43.1112V39.5819H60.6487C60.3591 40.9212 59.8162 42.0796 59.0198 43.0569C58.2597 43.998 57.3004 44.722 56.1421 45.2287C54.9838 45.7355 53.6626 45.9889 52.1785 45.9889Z" fill="#2E3338"/>
<path d="M75.5861 45.8803C74.7173 45.8803 74.0477 45.645 73.5771 45.1744C73.1066 44.6677 72.8713 43.9799 72.8713 43.1112V21.3927C72.8713 20.4878 73.1066 19.8 73.5771 19.3295C74.0477 18.8589 74.6992 18.6236 75.5318 18.6236C76.4005 18.6236 77.0521 18.8589 77.4865 19.3295C77.957 19.8 78.1923 20.4878 78.1923 21.3927V25.6278L77.595 24.6505C78.3914 22.6234 79.6402 21.1031 81.3415 20.0896C83.0428 19.0399 84.9974 18.515 87.2055 18.515C89.3049 18.515 91.0424 18.9132 92.4179 19.7095C93.8296 20.4697 94.8793 21.6461 95.5671 23.2388C96.2548 24.7953 96.5987 26.768 96.5987 29.1571V43.1112C96.5987 43.9799 96.3634 44.6677 95.8928 45.1744C95.4223 45.645 94.7526 45.8803 93.8839 45.8803C92.979 45.8803 92.2912 45.645 91.8206 45.1744C91.3501 44.6677 91.1148 43.9799 91.1148 43.1112V29.4829C91.1148 27.2024 90.6623 25.5373 89.7574 24.4876C88.8886 23.4379 87.5131 22.913 85.6309 22.913C83.4228 22.913 81.6492 23.6008 80.3098 24.9763C79.0067 26.3518 78.3552 28.1978 78.3552 30.5145V43.1112C78.3552 44.9573 77.4322 45.8803 75.5861 45.8803Z" fill="#2E3338"/>
<path d="M115.449 45.9889C113.277 45.9889 111.449 45.6088 109.965 44.8487C108.481 44.0885 107.377 42.9664 106.653 41.4823C105.929 39.9982 105.567 38.1883 105.567 36.0527V23.2388H102.309C101.585 23.2388 101.024 23.0578 100.626 22.6958C100.228 22.2977 100.029 21.7728 100.029 21.1212C100.029 20.4335 100.228 19.9086 100.626 19.5467C101.024 19.1847 101.585 19.0037 102.309 19.0037H105.567V13.4112C105.567 12.5063 105.802 11.8185 106.273 11.3479C106.78 10.8774 107.467 10.6421 108.336 10.6421C109.205 10.6421 109.874 10.8774 110.345 11.3479C110.816 11.8185 111.051 12.5063 111.051 13.4112V19.0037H117.403C118.127 19.0037 118.688 19.1847 119.087 19.5467C119.485 19.9086 119.684 20.4335 119.684 21.1212C119.684 21.7728 119.485 22.2977 119.087 22.6958C118.688 23.0578 118.127 23.2388 117.403 23.2388H111.051V35.6183C111.051 37.5368 111.449 38.9847 112.245 39.962C113.078 40.9393 114.417 41.428 116.263 41.428C116.915 41.428 117.476 41.3737 117.946 41.2651C118.453 41.1203 118.869 41.0298 119.195 40.9936C119.593 40.9936 119.919 41.1384 120.173 41.428C120.426 41.6814 120.553 42.1881 120.553 42.9483C120.553 43.4913 120.444 43.998 120.227 44.4686C120.046 44.9392 119.702 45.2468 119.195 45.3916C118.761 45.5364 118.164 45.6631 117.403 45.7717C116.679 45.9165 116.028 45.9889 115.449 45.9889Z" fill="#2E3338"/>
<path d="M135.232 45.9889C132.553 45.9889 130.236 45.4278 128.282 44.3057C126.363 43.1836 124.861 41.5909 123.775 39.5276C122.689 37.4644 122.146 35.0392 122.146 32.252C122.146 30.1163 122.454 28.2159 123.069 26.5509C123.685 24.8858 124.553 23.456 125.676 22.2615C126.834 21.0308 128.209 20.1077 129.802 19.4924C131.431 18.8408 133.241 18.515 135.232 18.515C137.874 18.515 140.155 19.0761 142.073 20.1982C144.028 21.3203 145.548 22.913 146.634 24.9763C147.72 27.0033 148.263 29.4286 148.263 32.252C148.263 34.3514 147.955 36.2518 147.34 37.9531C146.724 39.6543 145.838 41.1022 144.679 42.2967C143.557 43.4913 142.182 44.4143 140.553 45.0658C138.96 45.6812 137.186 45.9889 135.232 45.9889ZM135.232 41.7538C136.716 41.7538 138.019 41.3918 139.141 40.6679C140.263 39.9439 141.132 38.8761 141.747 37.4644C142.399 36.0527 142.725 34.3152 142.725 32.252C142.725 29.139 142.037 26.7861 140.661 25.1935C139.286 23.6008 137.476 22.8044 135.232 22.8044C133.711 22.8044 132.39 23.1664 131.268 23.8903C130.146 24.5781 129.259 25.6278 128.608 27.0395C127.992 28.4512 127.685 30.1887 127.685 32.252C127.685 35.3287 128.372 37.6816 129.748 39.3105C131.123 40.9393 132.951 41.7538 135.232 41.7538Z" fill="#2E3338"/>
<path d="M157.245 45.8803C156.376 45.8803 155.707 45.645 155.236 45.1744C154.765 44.6677 154.53 43.9799 154.53 43.1112V21.3927C154.53 20.4878 154.765 19.8 155.236 19.3295C155.707 18.8589 156.358 18.6236 157.191 18.6236C158.059 18.6236 158.711 18.8589 159.145 19.3295C159.616 19.8 159.851 20.4878 159.851 21.3927V25.845L159.254 24.6505C159.978 22.732 161.1 21.2298 162.62 20.1439C164.141 19.058 165.969 18.515 168.104 18.515C170.312 18.515 172.104 19.0399 173.479 20.0896C174.855 21.1393 175.796 22.7501 176.303 24.922H175.543C176.23 22.9311 177.407 21.3746 179.072 20.2525C180.737 19.0942 182.674 18.515 184.882 18.515C186.909 18.515 188.574 18.9132 189.877 19.7095C191.18 20.4697 192.157 21.6461 192.809 23.2388C193.46 24.7953 193.786 26.768 193.786 29.1571V43.1112C193.786 43.9799 193.533 44.6677 193.026 45.1744C192.556 45.645 191.886 45.8803 191.017 45.8803C190.148 45.8803 189.479 45.645 189.008 45.1744C188.538 44.6677 188.302 43.9799 188.302 43.1112V29.4286C188.302 27.1843 187.904 25.5373 187.108 24.4876C186.348 23.4379 185.081 22.913 183.307 22.913C181.316 22.913 179.742 23.6008 178.583 24.9763C177.425 26.3518 176.846 28.2521 176.846 30.6774V43.1112C176.846 43.9799 176.611 44.6677 176.14 45.1744C175.669 45.645 175 45.8803 174.131 45.8803C173.262 45.8803 172.575 45.645 172.068 45.1744C171.597 44.6677 171.362 43.9799 171.362 43.1112V29.4286C171.362 27.1843 170.982 25.5373 170.222 24.4876C169.462 23.4379 168.195 22.913 166.421 22.913C164.43 22.913 162.856 23.6008 161.697 24.9763C160.575 26.3518 160.014 28.2521 160.014 30.6774V43.1112C160.014 44.9573 159.091 45.8803 157.245 45.8803Z" fill="#2E3338"/>
<defs>
<linearGradient id="paint0_linear_30_4664" x1="48.3546" y1="20.9857" x2="15.8674" y2="21.5146" gradientUnits="userSpaceOnUse">
<stop stop-color="#00CCF0"/>
<stop offset="0.637766" stop-color="#4F6DC0"/>
<stop offset="1" stop-color="#536CBF"/>
</linearGradient>
<linearGradient id="paint1_linear_30_4664" x1="39.8535" y1="23.1303" x2="6.51563" y2="23.1303" gradientUnits="userSpaceOnUse">
<stop stop-color="#FF2E9F"/>
<stop offset="0.517" stop-color="#FF2F9D"/>
<stop offset="1" stop-color="#0088CF"/>
</linearGradient>
<linearGradient id="paint2_linear_30_4664" x1="47.6076" y1="5.3664" x2="6.67333" y2="6.68009" gradientUnits="userSpaceOnUse">
<stop stop-color="#FF28A7"/>
<stop offset="0.5" stop-color="#FF7A26"/>
<stop offset="1" stop-color="#FF6E24"/>
</linearGradient>
<linearGradient id="paint3_linear_30_4664" x1="46.2603" y1="8.36124" x2="2.06323" y2="8.36124" gradientUnits="userSpaceOnUse">
<stop stop-color="#FFAD2E"/>
<stop offset="1" stop-color="#FF6E24"/>
</linearGradient>
</defs>
</svg>
