<svg width="24" height="24" viewBox="0 0 24 24" fill="none" xmlns="http://www.w3.org/2000/svg">
<g clip-path="url(#clip0_75_1617)">
<g clip-path="url(#clip1_75_1617)">
<path d="M8 19C10.2091 19 12 17.2091 12 15C12 12.7909 10.2091 11 8 11C5.79086 11 4 12.7909 4 15C4 17.2091 5.79086 19 8 19Z" fill="#EAEDF5" stroke="#828BA5" stroke-width="1.5" stroke-linecap="round" stroke-linejoin="round"/>
<path d="M8 19C10.2091 19 12 17.2091 12 15C12 12.7909 10.2091 11 8 11C5.79086 11 4 12.7909 4 15C4 17.2091 5.79086 19 8 19Z" fill="#EAEDF5" stroke="#828BA5" stroke-width="1.5" stroke-linecap="round" stroke-linejoin="round"/>
<path d="M8 16C8.55228 16 9 15.5523 9 15C9 14.4477 8.55228 14 8 14C7.44772 14 7 14.4477 7 15C7 15.5523 7.44772 16 8 16Z" fill="#EAEDF5" stroke="#828BA5" stroke-width="1.5" stroke-linecap="round" stroke-linejoin="round"/>
<path d="M10.85 12.15L19 4" stroke="#828BA5" stroke-width="1.5" stroke-linecap="round" stroke-linejoin="round"/>
<path d="M18 5L20 7" stroke="#828BA5" stroke-width="1.5" stroke-linecap="round" stroke-linejoin="round"/>
<path d="M15 8L17 10" stroke="#828BA5" stroke-width="1.5" stroke-linecap="round" stroke-linejoin="round"/>
</g>
</g>
<defs>
<clipPath id="clip0_75_1617">
<rect width="24" height="24" fill="white"/>
</clipPath>
<clipPath id="clip1_75_1617">
<rect width="24" height="24" fill="white"/>
</clipPath>
</defs>
</svg>
