<svg width="61" height="58" viewBox="0 0 61 58" fill="none" xmlns="http://www.w3.org/2000/svg">
<path d="M54.619 28.3095C54.619 42.8399 42.8399 54.619 28.3095 54.619C13.7792 54.619 2 42.8399 2 28.3095C2 13.7792 13.7792 2 28.3095 2C42.8399 2 54.619 13.7792 54.619 28.3095Z" stroke="#36B37E" stroke-width="4"/>
<g clip-path="url(#clip0_150_3416)">
<g clip-path="url(#clip1_150_3416)">
<path d="M21.6663 40.0837C25.1641 40.0837 27.9997 37.2481 27.9997 33.7503C27.9997 30.2525 25.1641 27.417 21.6663 27.417C18.1685 27.417 15.333 30.2525 15.333 33.7503C15.333 37.2481 18.1685 40.0837 21.6663 40.0837Z" fill="#36B37E" fill-opacity="0.1" stroke="#36B37E" stroke-width="2.5" stroke-linecap="round" stroke-linejoin="round"/>
<path d="M21.6663 35.3337C22.5408 35.3337 23.2497 34.6248 23.2497 33.7503C23.2497 32.8759 22.5408 32.167 21.6663 32.167C20.7919 32.167 20.083 32.8759 20.083 33.7503C20.083 34.6248 20.7919 35.3337 21.6663 35.3337Z" stroke="#36B37E" stroke-width="2.5" stroke-linecap="round" stroke-linejoin="round"/>
<path d="M26.1787 29.2377L39.0829 16.3335" stroke="#36B37E" stroke-width="2.5" stroke-linecap="round" stroke-linejoin="round"/>
<path d="M37.5 17.917L40.6667 21.0837" stroke="#36B37E" stroke-width="2.5" stroke-linecap="round" stroke-linejoin="round"/>
<path d="M32.75 22.667L35.9167 25.8337" stroke="#36B37E" stroke-width="2.5" stroke-linecap="round" stroke-linejoin="round"/>
</g>
</g>
<circle cx="49.0233" cy="46.262" r="11.7381" fill="#2FBA56"/>
<path d="M45.5703 46.2619L47.8719 49.0238L53.856 44.1904" stroke="white" stroke-width="1.5" stroke-linecap="round" stroke-linejoin="round"/>
<defs>
<clipPath id="clip0_150_3416">
<rect width="36" height="36" fill="white" transform="translate(10 10)"/>
</clipPath>
<clipPath id="clip1_150_3416">
<rect width="38" height="38" fill="white" transform="translate(9 10)"/>
</clipPath>
</defs>
</svg>
