<svg width="106" height="105" viewBox="0 0 106 105" fill="none" xmlns="http://www.w3.org/2000/svg">
<g filter="url(#filter0_d_150_3402)">
<rect x="26.7617" y="26" width="52.9793" height="52.9793" rx="26.4896" fill="white" stroke="#F1F1F1" stroke-width="4"/>
<circle cx="52.9657" cy="52.9999" r="13.6786" fill="#EDECFF" stroke="#6E62E6" stroke-width="2.5"/>
<path d="M54.3478 44.7144C54.3478 45.4771 53.7296 46.0954 52.9669 46.0954C52.2042 46.0954 51.5859 45.4771 51.5859 44.7144C51.5859 43.9518 52.2042 43.3335 52.9669 43.3335C53.7296 43.3335 54.3478 43.9518 54.3478 44.7144Z" fill="#6E62E6"/>
<path d="M54.3478 61.2857C54.3478 62.0484 53.7296 62.6667 52.9669 62.6667C52.2042 62.6667 51.5859 62.0484 51.5859 61.2857C51.5859 60.5231 52.2042 59.9048 52.9669 59.9048C53.7296 59.9048 54.3478 60.5231 54.3478 61.2857Z" fill="#6E62E6"/>
<path d="M46.0607 53.0001C46.0607 53.7628 45.4425 54.381 44.6798 54.381C43.9171 54.381 43.2988 53.7628 43.2988 53.0001C43.2988 52.2374 43.9171 51.6191 44.6798 51.6191C45.4425 51.6191 46.0607 52.2374 46.0607 53.0001Z" fill="#6E62E6"/>
<path d="M62.633 53.0001C62.633 53.7628 62.0147 54.381 61.252 54.381C60.4894 54.381 59.8711 53.7628 59.8711 53.0001C59.8711 52.2374 60.4894 51.6191 61.252 51.6191C62.0147 51.6191 62.633 52.2374 62.633 53.0001Z" fill="#6E62E6"/>
<path d="M52.9648 48.9722V57.0277" stroke="#6E62E6" stroke-width="2.5" stroke-linecap="round" stroke-linejoin="round"/>
<path d="M56.4172 53.5752L52.9648 57.0276" stroke="#6E62E6" stroke-width="2.5" stroke-linecap="round" stroke-linejoin="round"/>
<path d="M49.5127 53.5752L52.9651 57.0276" stroke="#6E62E6" stroke-width="2.5" stroke-linecap="round" stroke-linejoin="round"/>
<path d="M52.2754 66.8096H59.8706H62.6325C64.1579 66.8096 65.3944 68.0461 65.3944 69.5715V69.5715V70.262" stroke="#6E62E6" stroke-width="1.5" stroke-linecap="round"/>
<path d="M53.2754 78.7877C67.7995 78.7877 79.5735 67.0136 79.5735 52.4895C79.5735 37.9655 67.7995 26.1914 53.2754 26.1914" stroke="#6E62E6" stroke-width="4" stroke-linecap="round"/>
</g>
<defs>
<filter id="filter0_d_150_3402" x="0.761719" y="0" width="104.979" height="104.979" filterUnits="userSpaceOnUse" color-interpolation-filters="sRGB">
<feFlood flood-opacity="0" result="BackgroundImageFix"/>
<feColorMatrix in="SourceAlpha" type="matrix" values="0 0 0 0 0 0 0 0 0 0 0 0 0 0 0 0 0 0 127 0" result="hardAlpha"/>
<feOffset/>
<feGaussianBlur stdDeviation="12"/>
<feComposite in2="hardAlpha" operator="out"/>
<feColorMatrix type="matrix" values="0 0 0 0 0.980392 0 0 0 0 0.980392 0 0 0 0 1 0 0 0 1 0"/>
<feBlend mode="normal" in2="BackgroundImageFix" result="effect1_dropShadow_150_3402"/>
<feBlend mode="normal" in="SourceGraphic" in2="effect1_dropShadow_150_3402" result="shape"/>
</filter>
</defs>
</svg>
