<svg width="26" height="26" viewBox="0 0 26 26" fill="none" xmlns="http://www.w3.org/2000/svg">
<g clip-path="url(#clip0_51_7317)">
<path d="M11.325 5.317C11.751 3.561 14.249 3.561 14.675 5.317C14.7389 5.5808 14.8642 5.82578 15.0407 6.032C15.2172 6.23822 15.4399 6.39985 15.6907 6.50375C15.9414 6.60764 16.2132 6.65085 16.4838 6.62987C16.7544 6.60889 17.0162 6.5243 17.248 6.383C18.791 5.443 20.558 7.209 19.618 8.753C19.4769 8.98466 19.3924 9.24634 19.3715 9.51677C19.3506 9.78721 19.3938 10.0588 19.4975 10.3094C19.6013 10.56 19.7627 10.7826 19.9687 10.9591C20.1747 11.1355 20.4194 11.2609 20.683 11.325C22.439 11.751 22.439 14.249 20.683 14.675C20.4192 14.7389 20.1742 14.8642 19.968 15.0407C19.7618 15.2172 19.6001 15.4399 19.4963 15.6907C19.3924 15.9414 19.3491 16.2132 19.3701 16.4838C19.3911 16.7544 19.4757 17.0162 19.617 17.248C20.557 18.791 18.791 20.558 17.247 19.618C17.0153 19.4769 16.7537 19.3924 16.4832 19.3715C16.2128 19.3506 15.9412 19.3938 15.6906 19.4975C15.44 19.6013 15.2174 19.7627 15.0409 19.9687C14.8645 20.1747 14.7391 20.4194 14.675 20.683C14.249 22.439 11.751 22.439 11.325 20.683C11.2611 20.4192 11.1358 20.1742 10.9593 19.968C10.7828 19.7618 10.5601 19.6001 10.3093 19.4963C10.0586 19.3924 9.78683 19.3491 9.51621 19.3701C9.24559 19.3911 8.98375 19.4757 8.752 19.617C7.209 20.557 5.442 18.791 6.382 17.247C6.5231 17.0153 6.60755 16.7537 6.62848 16.4832C6.64942 16.2128 6.60624 15.9412 6.50247 15.6906C6.3987 15.44 6.23726 15.2174 6.03127 15.0409C5.82529 14.8645 5.58056 14.7391 5.317 14.675C3.561 14.249 3.561 11.751 5.317 11.325C5.5808 11.2611 5.82578 11.1358 6.032 10.9593C6.23822 10.7828 6.39985 10.5601 6.50375 10.3093C6.60764 10.0586 6.65085 9.78683 6.62987 9.51621C6.60889 9.24559 6.5243 8.98375 6.383 8.752C5.443 7.209 7.209 5.442 8.753 6.382C9.753 6.99 11.049 6.452 11.325 5.317Z" stroke="#0E296D" stroke-width="1.5" stroke-linecap="round" stroke-linejoin="round"/>
<path d="M13 16C14.6569 16 16 14.6569 16 13C16 11.3431 14.6569 10 13 10C11.3431 10 10 11.3431 10 13C10 14.6569 11.3431 16 13 16Z" stroke="#0E296D" stroke-width="1.5" stroke-linecap="round" stroke-linejoin="round"/>
</g>
<defs>
<clipPath id="clip0_51_7317">
<rect width="24" height="24" fill="white" transform="translate(1 1)"/>
</clipPath>
</defs>
</svg>
