<svg width="24" height="24" viewBox="0 0 24 24" fill="none" xmlns="http://www.w3.org/2000/svg">
<g clip-path="url(#clip0_75_1569)">
<path d="M11.9999 11.4444C13.2272 11.4444 14.2222 10.4495 14.2222 9.22222C14.2222 7.99492 13.2272 7 11.9999 7C10.7726 7 9.77771 7.99492 9.77771 9.22222C9.77771 10.4495 10.7726 11.4444 11.9999 11.4444Z" fill="#EAEDF5" stroke="#828BA5" stroke-width="1.5" stroke-linecap="round" stroke-linejoin="round"/>
<path d="M8.66663 16.9998V15.8887C8.66663 15.2994 8.90075 14.7341 9.3175 14.3174C9.73425 13.9006 10.2995 13.6665 10.8888 13.6665H13.1111C13.7004 13.6665 14.2657 13.9006 14.6824 14.3174C15.0992 14.7341 15.3333 15.2994 15.3333 15.8887V16.9998" stroke="#828BA5" stroke-width="1.5" stroke-linecap="round" stroke-linejoin="round"/>
<path d="M19 12.5H21M19 12.5C19 10.6979 18.6303 9.01309 17.9882 7.5775M19 12.5C19 14.1281 18.6982 15.6606 18.1664 17M5 12.5H3M5 12.5C5 10.6979 5.36971 9.01309 6.01181 7.5775M5 12.5C5 14.1281 5.30179 15.6606 5.83359 17M7.70299 5C7.03041 5.71076 6.45595 6.5845 6.01181 7.5775M16.297 5C16.9696 5.71076 17.5441 6.5845 17.9882 7.5775M17.105 19C17.5193 18.401 17.8769 17.7291 18.1664 17M6.89498 19C6.48074 18.401 6.12309 17.7291 5.83359 17M6.01181 7.5775L4.5 6.5M17.9882 7.5775L19.5 6.5M5.83359 17L4.5 18M18.1664 17L19.5 18" stroke="#828BA5" stroke-width="1.5" stroke-linecap="round"/>
<circle cx="3.5" cy="5.5" r="1" fill="#EAEDF5" stroke="#828BA5"/>
<circle cx="1.5" cy="12.5" r="1" fill="#EAEDF5" stroke="#828BA5"/>
<circle cx="22.5" cy="12.5" r="1" fill="#EAEDF5" stroke="#828BA5"/>
<circle cx="20.5" cy="18.5" r="1" fill="#EAEDF5" stroke="#828BA5"/>
<circle cx="3.5" cy="18.5" r="1" fill="#EAEDF5" stroke="#828BA5"/>
<circle cx="20.5" cy="5.5" r="1" fill="#EAEDF5" stroke="#828BA5"/>
</g>
<defs>
<clipPath id="clip0_75_1569">
<rect width="24" height="24" fill="white"/>
</clipPath>
</defs>
</svg>
