<svg id="SvgjsSvg1012" width="288" height="288" xmlns="http://www.w3.org/2000/svg" version="1.1" xmlns:xlink="http://www.w3.org/1999/xlink" xmlns:svgjs="http://svgjs.com/svgjs"><defs id="SvgjsDefs1013"></defs><g id="SvgjsG1014"><svg xmlns="http://www.w3.org/2000/svg" viewBox="0 0 101 101" width="288" height="288"><path d="M50.5 16.4c-18.8 0-34.1 15.3-34.1 34.1s15.3 34.1 34.1 34.1 34.1-15.3 34.1-34.1-15.3-34.1-34.1-34.1zm0 63.4c-16.1 0-29.3-13.1-29.3-29.3s13.1-29.3 29.3-29.3c16.1 0 29.3 13.1 29.3 29.3S66.6 79.8 50.5 79.8z" fill="#9e9e9e" class="color000 svgShape"></path><path d="M66.2 47.8H52.9V34.5c0-1.3-1.1-2.4-2.4-2.4-1.3 0-2.4 1.1-2.4 2.4v13.3H34.8c-1.3 0-2.4 1.1-2.4 2.4s1.1 2.4 2.4 2.4h13.3v13.3c0 1.3 1.1 2.4 2.4 2.4 1.3 0 2.4-1.1 2.4-2.4V52.6h13.3c1.3 0 2.4-1.1 2.4-2.4s-1.1-2.4-2.4-2.4z" fill="#9e9e9e" class="color000 svgShape"></path></svg></g></svg>