<svg width="22" height="22" viewBox="0 0 22 22" xmlns="http://www.w3.org/2000/svg">
    <path d="m20.442 9.682-.001-.001-8.143-8.143A1.825 1.825 0 0 0 11 1c-.49 0-.952.191-1.3.538L1.562 9.676l-.008.009a1.84 1.84 0 0 0 .004 2.595 1.827 1.827 0 0 0 1.276.538h.324v5.992c0 1.186.965 2.151 2.15 2.151h3.186a.585.585 0 0 0 .585-.585v-4.698c0-.54.44-.98.982-.98h1.879c.54 0 .98.44.98.98v4.698c0 .323.263.585.586.585h3.185c1.186 0 2.151-.965 2.151-2.15v-5.993h.3c.492 0 .953-.19 1.3-.538a1.84 1.84 0 0 0 .001-2.598zm-.828 1.77a.664.664 0 0 1-.472.197h-.886a.585.585 0 0 0-.585.585v6.576c0 .541-.44.981-.98.981h-2.602v-4.113c0-1.186-.964-2.15-2.15-2.15h-1.88a2.153 2.153 0 0 0-2.15 2.15v4.113H5.308a.982.982 0 0 1-.981-.98v-6.577a.585.585 0 0 0-.585-.585h-.87a.663.663 0 0 1-.487-.196.669.669 0 0 1-.001-.945l8.143-8.143a.663.663 0 0 1 .472-.195c.178 0 .346.069.472.195l8.14 8.14.005.004a.67.67 0 0 1-.002.944z" fill="#727172" fill-rule="nonzero" stroke="#727172" stroke-width=".4"/>
</svg>
