<?xml version="1.0" encoding="UTF-8"?>
<svg width="103px" height="96px" viewBox="0 0 103 96" version="1.1" xmlns="http://www.w3.org/2000/svg" xmlns:xlink="http://www.w3.org/1999/xlink">
    <title>Group</title>
    <g id="Page-1" stroke="none" stroke-width="1" fill="none" fill-rule="evenodd">
        <g id="Artboard" transform="translate(-76.000000, -99.000000)" stroke="#DDDDDD" stroke-width="2.5">
            <g id="Group" transform="translate(80.000000, 101.000000)">
                <path d="M27.7210185,82.8167316 C34.0191475,85.4991327 41.0641542,87 48.5,87 C75.2858104,87 97,67.5243866 97,43.5 C97,19.4756134 75.2858104,0 48.5,0 C21.7141896,0 0,19.4756134 0,43.5 C0,52.140712 2.80891159,60.1930022 7.65242984,66.962391" id="Path" stroke-linecap="round"></path>
                <path d="M7.65242984,66.962391 C7.2621862,73.7585401 6.52700404,78.9905263 5.44688336,82.6583495 C4.36676268,86.3261727 2.5511349,89.4037433 0,91.8910614 C8.21879436,90.5468358 14.6257626,88.916482 19.2209047,87 C23.8160468,85.083518 30.2230151,81.369602 38.4418094,75.8582522" id="Path" stroke-linecap="round"></path>
                <circle id="Oval" cx="25.5" cy="43.5" r="5.25"></circle>
                <circle id="Oval-Copy" cx="48.5" cy="43.5" r="5.25"></circle>
                <circle id="Oval-Copy-2" cx="71.5" cy="43.5" r="5.25"></circle>
            </g>
        </g>
    </g>
</svg>