<svg width="20" height="20" viewBox="0 0 20 20" xmlns="http://www.w3.org/2000/svg">
    <g fill="#727172" fill-rule="nonzero" stroke="#727172" stroke-width=".7">
        <path d="M10 10c-4.825 0-8.75 3.87-8.75 8.625 0 .207.17.375.38.375s.38-.168.38-.375c0-4.343 3.585-7.875 7.99-7.875s7.99 3.532 7.99 7.875c0 .207.17.375.38.375s.38-.168.38-.375C18.75 13.868 14.825 10 10 10zM10 1C7.657 1 5.75 2.794 5.75 5S7.657 9 10 9s4.25-1.794 4.25-4S12.343 1 10 1zm0 7.273C8.083 8.273 6.523 6.804 6.523 5S8.083 1.727 10 1.727c1.917 0 3.477 1.469 3.477 3.273S11.917 8.273 10 8.273z"/>
    </g>
</svg>
