<svg width="16" height="18" viewBox="0 0 16 18" fill="none" xmlns="http://www.w3.org/2000/svg">
<path d="M10.47 4.53553L5.0533 9.9522C4.72178 10.2837 4.53553 10.7334 4.53553 11.2022C4.53553 11.671 4.72178 12.1207 5.0533 12.4522C5.38482 12.7837 5.83446 12.97 6.3033 12.97C6.77214 12.97 7.22178 12.7837 7.5533 12.4522L12.97 7.03553C13.633 6.37249 14.0055 5.47322 14.0055 4.53553C14.0055 3.59785 13.633 2.69858 12.97 2.03553C12.3069 1.37249 11.4076 1 10.47 1C9.53229 1 8.63301 1.37249 7.96997 2.03553L2.5533 7.4522C1.55874 8.44676 1 9.79568 1 11.2022C1 12.6087 1.55874 13.9576 2.5533 14.9522C3.54786 15.9468 4.89678 16.5055 6.3033 16.5055C7.70982 16.5055 9.05874 15.9468 10.0533 14.9522L15.47 9.53553" stroke="#595859" stroke-linecap="round" stroke-linejoin="round"/>
</svg>
