<svg width="568" height="441" viewBox="0 0 568 441" fill="none" xmlns="http://www.w3.org/2000/svg">
<path d="M231.504 0V104.505H336.009V0H231.504ZM283.624 29.896C296.056 29.896 306.113 39.9481 306.113 52.12C306.113 64.5523 296.061 74.6093 283.624 74.6093C271.452 74.6093 261.4 64.5572 261.4 52.12C261.4 39.9481 271.452 29.896 283.624 29.896ZM29.904 52.12C13.2373 52.12 0.00799561 65.6093 0.00799561 82.016V104.505H187.315C196.575 98.1564 206.361 92.8647 216.419 88.3653V52.12H29.904ZM350.824 52.12V88.3653C361.142 92.8653 370.933 98.1517 380.188 104.505H567.495V82.016C567.5 65.6093 554.271 52.12 537.604 52.12H350.824ZM224.36 117.464C175.677 139.953 141.813 189.161 141.813 246.308C141.813 324.887 205.308 388.121 283.627 388.121C362.205 388.121 425.693 324.892 425.693 246.308C425.693 189.163 391.829 139.953 342.887 117.464C340.772 118.787 338.392 119.318 336.006 119.318H231.501C229.121 119.318 226.475 118.787 224.355 117.464H224.36ZM0 134.396V410.609C0 427.276 13.2292 440.505 29.896 440.505H537.603C554.269 440.505 567.499 427.276 567.499 410.609V134.396H413.525C439.452 164.557 455.593 203.448 455.593 246.308C455.593 341.021 378.339 418.015 283.62 418.015C189.172 418.015 111.913 341.025 111.913 246.308C111.913 203.448 128.053 164.559 153.981 134.396H0ZM283.613 148.948C337.056 148.948 380.707 192.865 380.707 246.308C380.707 299.751 337.056 343.141 283.613 343.141C230.171 343.141 186.78 299.751 186.78 246.308C186.78 192.865 230.171 148.948 283.613 148.948ZM283.613 178.844C246.311 178.844 216.416 209.005 216.416 246.308C216.416 283.611 246.312 313.245 283.613 313.245C320.916 313.245 350.811 283.615 350.811 246.308C350.811 209.005 320.915 178.844 283.613 178.844ZM238.9 209.005C243.134 209.005 246.306 212.443 246.306 216.412C246.306 220.646 243.129 224.083 238.9 224.083C234.931 224.083 231.494 220.646 231.494 216.412C231.494 212.443 234.931 209.005 238.9 209.005ZM401.073 245.251C410.068 244.459 418.537 253.454 417.213 262.183C408.484 335.735 341.281 388.647 267.733 379.917C206.884 372.511 158.733 324.887 150.531 264.037C149.999 256.631 155.822 248.959 163.494 248.163C170.901 247.105 178.838 252.663 180.161 260.069C186.51 307.429 223.812 344.2 271.437 350.022C328.849 356.903 380.702 315.892 387.582 258.481C388.374 251.601 394.197 245.783 401.077 245.252L401.073 245.251Z" fill="url(#paint0_linear_424_2)"/>
<path d="M231.504 0V104.505H336.009V0H231.504ZM283.624 29.896C296.056 29.896 306.113 39.9481 306.113 52.12C306.113 64.5523 296.061 74.6093 283.624 74.6093C271.452 74.6093 261.4 64.5572 261.4 52.12C261.4 39.9481 271.452 29.896 283.624 29.896ZM29.904 52.12C13.2373 52.12 0.00799561 65.6093 0.00799561 82.016V104.505H187.315C196.575 98.1564 206.361 92.8647 216.419 88.3653V52.12H29.904ZM350.824 52.12V88.3653C361.142 92.8653 370.933 98.1517 380.188 104.505H567.495V82.016C567.5 65.6093 554.271 52.12 537.604 52.12H350.824ZM224.36 117.464C175.677 139.953 141.813 189.161 141.813 246.308C141.813 324.887 205.308 388.121 283.627 388.121C362.205 388.121 425.693 324.892 425.693 246.308C425.693 189.163 391.829 139.953 342.887 117.464C340.772 118.787 338.392 119.318 336.006 119.318H231.501C229.121 119.318 226.475 118.787 224.355 117.464H224.36ZM0 134.396V410.609C0 427.276 13.2292 440.505 29.896 440.505H537.603C554.269 440.505 567.499 427.276 567.499 410.609V134.396H413.525C439.452 164.557 455.593 203.448 455.593 246.308C455.593 341.021 378.339 418.015 283.62 418.015C189.172 418.015 111.913 341.025 111.913 246.308C111.913 203.448 128.053 164.559 153.981 134.396H0ZM283.613 148.948C337.056 148.948 380.707 192.865 380.707 246.308C380.707 299.751 337.056 343.141 283.613 343.141C230.171 343.141 186.78 299.751 186.78 246.308C186.78 192.865 230.171 148.948 283.613 148.948ZM283.613 178.844C246.311 178.844 216.416 209.005 216.416 246.308C216.416 283.611 246.312 313.245 283.613 313.245C320.916 313.245 350.811 283.615 350.811 246.308C350.811 209.005 320.915 178.844 283.613 178.844ZM238.9 209.005C243.134 209.005 246.306 212.443 246.306 216.412C246.306 220.646 243.129 224.083 238.9 224.083C234.931 224.083 231.494 220.646 231.494 216.412C231.494 212.443 234.931 209.005 238.9 209.005ZM401.073 245.251C410.068 244.459 418.537 253.454 417.213 262.183C408.484 335.735 341.281 388.647 267.733 379.917C206.884 372.511 158.733 324.887 150.531 264.037C149.999 256.631 155.822 248.959 163.494 248.163C170.901 247.105 178.838 252.663 180.161 260.069C186.51 307.429 223.812 344.2 271.437 350.022C328.849 356.903 380.702 315.892 387.582 258.481C388.374 251.601 394.197 245.783 401.077 245.252L401.073 245.251Z" fill="black" fill-opacity="0.2"/>
<defs>
<linearGradient id="paint0_linear_424_2" x1="15" y1="-49.5" x2="491" y2="487.5" gradientUnits="userSpaceOnUse">
<stop stop-opacity="0.87"/>
<stop offset="0.52185" stop-color="#777777"/>
<stop offset="1"/>
</linearGradient>
</defs>
</svg>
