<svg width="129" height="116" viewBox="0 0 129 116" fill="none" xmlns="http://www.w3.org/2000/svg">
<path fill-rule="evenodd" clip-rule="evenodd" d="M104.841 77.2589L105.298 76.1484C107.834 69.9963 109.234 63.2572 109.234 56.186C109.234 27.1341 85.5854 3.58286 56.4136 3.58286C27.2419 3.58286 3.59351 27.1341 3.59351 56.186C3.59351 85.238 27.2419 108.789 56.4136 108.789C66.896 108.789 76.6578 105.751 84.8691 100.511L85.8467 99.8876L121.935 109.912L104.841 77.2589ZM127 114L86.2683 102.686C77.6519 108.184 67.4066 111.372 56.4136 111.372C25.8095 111.372 1 86.6645 1 56.186C1 25.7076 25.8095 1 56.4136 1C87.0177 1 111.827 25.7076 111.827 56.186C111.827 63.5994 110.359 70.6713 107.698 77.1293L127 114Z" fill="black" stroke="black" stroke-width="5"/>
</svg>
