<?xml version="1.0" encoding="UTF-8"?>
<svg width="700pt" height="700pt" version="1.1" stroke="gray" fill="gray" viewBox="0 0 700 700" xmlns="http://www.w3.org/2000/svg" xmlns:xlink="http://www.w3.org/1999/xlink">

  <path d="m500.39 349.34-36.969-222.47-1.4219-8.4219c-1.0938-7.1094-7.3281-12.25-14.547-12.25h-195.02c-7.2188 0-13.344 5.25-14.547 12.359l-1.4219 8.4219-36.75 220.72c0 0.54688-0.10938 1.3125-0.10938 1.8594l-0.10938 94.609c0 5.3594 4.375 9.8438 9.8438 9.8438h281.42c5.3594 0 9.8438-4.375 9.8438-9.8438v-92.859c-0.10938-0.76562-0.21875-1.4219-0.21875-1.9688zm-243.25-220.06c0.21875-1.4219 1.4219-2.4062 2.9531-2.4062h179.92c1.4219 0 2.625 0.98438 2.9531 2.4062l34.453 206.94c0.32812 1.75-1.0938 3.3906-2.9531 3.3906h-78.312c-5.3594 0-9.8438 4.375-9.8438 9.8438v0.54688c0 3.6094-0.54688 7.1094-1.5312 10.391-4.4844 14.984-18.375 25.922-34.781 25.922s-30.406-10.938-34.781-25.922c-0.98438-3.2812-1.5312-6.7812-1.5312-10.391 0-5.6875-4.5938-10.281-10.281-10.281h-77.766c-1.8594 0-3.1719-1.6406-2.9531-3.3906zm-36.859 222.47c0-0.32812 0-0.65625 0.10938-0.98438 0 0.4375 0 0.98438-0.10938 1.3125zm259.44 71.531c0 5.3594-4.375 9.8438-9.8438 9.8438h-239.86c-5.3594 0-9.8438-4.375-9.8438-9.8438v-59.938c0-1.6406 1.3125-2.9531 2.9531-2.9531h68.25c1.4219 0 2.5156 0.98438 2.8438 2.2969 5.7969 25.375 28.547 44.406 55.672 44.406s49.875-19.031 55.672-44.406c0.32812-1.3125 1.4219-2.2969 2.8438-2.2969h68.25c1.6406 0 2.9531 1.3125 2.9531 2.9531v59.938z"/>

</svg>
