<svg xmlns="http://www.w3.org/2000/svg" width="25" height="22" viewBox="0 0 25 22">
    <g fill="none" fill-rule="evenodd">
        <g fill="#B1B1B1" fill-rule="nonzero">
            <g>
                <path d="M31.017 11.153C29.723 9.765 27.947 9 26.017 9c-1.444 0-2.765.451-3.929 1.341-.587.45-1.119.999-1.588 1.64-.469-.64-1.001-1.19-1.588-1.64C17.748 9.451 16.427 9 14.984 9c-1.93 0-3.707.765-5 2.153C8.703 12.525 8 14.4 8 16.431c0 2.092.788 4.006 2.48 6.025 1.513 1.806 3.688 3.64 6.206 5.763.86.725 1.835 1.546 2.848 2.422.267.231.61.359.966.359s.699-.128.966-.359c1.012-.875 1.988-1.698 2.848-2.423 2.518-2.123 4.693-3.956 6.207-5.762C32.212 20.437 33 18.523 33 16.431c0-2.031-.704-3.906-1.983-5.278z" transform="translate(-322 -393) translate(314 384)"/>
            </g>
        </g>
    </g>
</svg>
