<?xml version="1.0" standalone="no"?>
<!DOCTYPE svg PUBLIC "-//W3C//DTD SVG 20010904//EN"
 "http://www.w3.org/TR/2001/REC-SVG-20010904/DTD/svg10.dtd">
<svg version="1.0" xmlns="http://www.w3.org/2000/svg"
 width="96.000000pt" height="96.000000pt" viewBox="0 0 96.000000 96.000000"
 preserveAspectRatio="xMidYMid meet">

<g transform="translate(0.000000,96.000000) scale(0.100000,-0.100000)"
fill="#000000" stroke="none">
<path d="M417 820 c-195 -49 -307 -246 -248 -438 26 -88 26 -122 0 -174 -17
-33 -18 -42 -7 -49 19 -12 34 -11 101 8 56 15 62 15 111 -3 58 -21 159 -24
222 -6 59 17 131 69 170 121 160 219 20 528 -248 546 -34 2 -80 0 -101 -5z
m-32 -335 c0 -27 -3 -30 -30 -30 -21 0 -31 5 -33 18 -6 33 6 49 35 45 24 -3
28 -8 28 -33z m140 0 c0 -27 -3 -30 -30 -30 -21 0 -31 5 -33 18 -6 33 6 49 35
45 24 -3 28 -8 28 -33z m140 15 c13 -41 -43 -70 -64 -33 -13 25 5 53 34 53 15
0 26 -7 30 -20z"/>
</g>
</svg>
