<?xml version="1.0" standalone="no"?>
<!DOCTYPE svg PUBLIC "-//W3C//DTD SVG 20010904//EN"
 "http://www.w3.org/TR/2001/REC-SVG-20010904/DTD/svg10.dtd">
<svg version="1.0" xmlns="http://www.w3.org/2000/svg"
 width="2048.000000pt" height="2048.000000pt" viewBox="0 0 2048.000000 2048.000000"
 preserveAspectRatio="xMidYMid meet">

<g transform="translate(0.000000,2048.000000) scale(0.100000,-0.100000)"
fill="#000000" stroke="none">
<path d="M10126 18835 c-20 -19 -39 -35 -45 -35 -5 0 -11 -10 -15 -23 -3 -13
-18 -27 -35 -33 -19 -8 -30 -20 -33 -35 -2 -18 -10 -25 -31 -27 -21 -3 -29
-10 -33 -32 -4 -19 -14 -30 -29 -34 -13 -3 -27 -15 -30 -26 -4 -11 -17 -28
-31 -36 -13 -9 -24 -20 -24 -25 0 -5 -15 -24 -32 -43 -48 -49 -95 -104 -119
-137 -11 -16 -27 -29 -35 -29 -8 0 -14 -10 -14 -26 0 -18 -7 -28 -28 -35 -17
-6 -32 -21 -39 -39 -6 -17 -18 -30 -27 -30 -9 0 -19 -12 -22 -27 -4 -15 -18
-36 -31 -47 -13 -10 -31 -36 -40 -58 -9 -23 -25 -43 -39 -49 -17 -6 -24 -16
-24 -34 0 -17 -8 -29 -25 -37 -16 -7 -29 -24 -35 -49 -6 -21 -21 -46 -34 -56
-13 -11 -27 -33 -30 -50 -4 -17 -15 -33 -24 -35 -9 -3 -26 -28 -37 -57 -11
-28 -27 -54 -37 -57 -10 -3 -18 -13 -18 -22 0 -27 -41 -102 -56 -102 -9 0 -14
-11 -14 -31 0 -19 -11 -45 -29 -68 -16 -20 -33 -54 -37 -76 -4 -21 -17 -49
-29 -61 -12 -12 -25 -34 -29 -48 -3 -14 -9 -38 -12 -53 -4 -16 -12 -31 -19
-35 -7 -4 -18 -29 -25 -55 -6 -27 -22 -68 -35 -93 -12 -25 -26 -71 -30 -102
-3 -32 -12 -61 -18 -65 -26 -17 -45 -72 -50 -146 -3 -47 -11 -86 -20 -95 -24
-27 -36 -81 -46 -195 -5 -59 -14 -113 -19 -120 -23 -28 -37 -228 -36 -512 1
-290 10 -405 39 -492 8 -24 15 -67 15 -96 0 -82 17 -165 41 -198 15 -22 23
-50 26 -97 6 -93 10 -106 37 -139 17 -20 27 -48 32 -84 3 -30 17 -71 30 -91
13 -21 24 -46 24 -56 0 -27 21 -85 34 -97 7 -5 18 -32 26 -60 7 -27 23 -61 36
-75 12 -14 26 -42 29 -63 4 -20 20 -51 36 -68 20 -22 29 -41 29 -65 0 -21 6
-37 15 -40 18 -7 55 -70 55 -95 0 -10 7 -19 15 -19 9 0 20 -12 25 -27 17 -47
34 -76 58 -99 12 -13 22 -32 22 -44 0 -12 10 -25 24 -31 15 -7 28 -27 37 -57
9 -30 23 -51 36 -57 13 -5 23 -20 25 -35 2 -17 10 -26 26 -28 16 -3 25 -12 29
-33 3 -16 13 -34 22 -39 9 -5 28 -31 41 -59 16 -31 32 -50 42 -51 11 0 21 -12
26 -32 6 -23 16 -34 33 -38 17 -4 25 -14 29 -35 4 -21 12 -31 27 -33 13 -2 25
-14 32 -33 5 -16 16 -29 24 -29 8 0 24 -16 36 -35 11 -19 27 -35 36 -35 8 0
15 -7 15 -15 0 -8 8 -23 18 -33 30 -33 48 -57 56 -77 4 -11 7 -260 7 -553 0
-532 -2 -562 -33 -562 -5 0 -21 -8 -34 -19 -21 -17 -27 -17 -76 -4 -58 16
-200 13 -234 -4 -11 -6 -203 -13 -464 -16 -454 -7 -543 -12 -755 -47 -88 -15
-169 -20 -305 -20 -102 -1 -205 -5 -230 -11 -138 -31 -268 -49 -394 -55 -77
-3 -157 -10 -176 -16 -86 -24 -159 -37 -210 -38 -78 0 -178 -18 -205 -36 -21
-14 -25 -13 -42 4 -10 11 -30 22 -45 26 -21 5 -28 13 -28 30 0 13 -7 29 -15
36 -8 7 -15 18 -15 25 0 7 -6 18 -14 24 -8 6 -17 37 -21 68 -4 37 -13 62 -26
72 -13 11 -25 44 -35 99 -10 48 -22 82 -29 82 -7 0 -17 30 -24 73 -13 77 -41
167 -52 167 -3 0 -9 38 -12 84 -4 50 -19 119 -37 174 -26 80 -30 106 -31 209
0 121 -14 364 -25 442 -4 24 -1 60 5 80 6 20 15 154 19 299 6 174 13 267 21
275 6 6 11 20 11 32 0 12 4 25 9 31 11 11 31 136 31 193 0 23 6 43 13 48 18
11 26 34 42 127 8 45 23 92 34 107 12 15 23 52 27 88 3 33 11 61 15 61 5 0 9
9 9 19 0 10 7 21 15 25 8 3 15 16 15 29 0 37 21 91 41 105 12 8 21 32 25 63 4
30 14 55 24 62 20 14 50 79 50 107 0 10 7 20 15 23 16 7 45 69 45 97 0 10 8
20 18 22 11 3 24 26 35 61 12 37 24 58 37 62 12 4 20 15 20 29 0 12 9 32 20
44 11 12 20 26 20 32 0 5 7 10 15 10 10 0 15 10 15 34 0 30 3 35 28 38 20 2
28 9 31 28 1 14 14 35 27 49 13 13 31 41 41 62 9 22 23 39 30 39 8 0 19 14 25
30 6 19 19 32 34 36 18 5 24 13 24 34 0 22 5 29 22 32 12 2 29 16 38 31 8 16
29 43 45 61 96 101 175 191 175 198 0 4 6 8 13 8 7 0 31 18 52 40 21 22 44 40
50 40 5 0 23 16 38 35 15 19 34 35 42 35 7 0 17 9 20 20 4 12 18 23 35 27 19
3 30 12 32 26 2 14 14 24 35 30 21 6 33 17 35 31 2 13 14 24 33 31 17 5 46 24
65 42 19 18 44 33 55 33 11 0 25 10 30 23 6 12 20 23 32 25 12 2 32 14 45 27
13 14 29 25 36 25 6 0 12 4 12 8 0 4 13 13 29 19 23 8 31 19 37 48 3 20 17 48
29 61 17 18 24 41 29 99 7 79 22 132 42 152 7 7 16 39 20 70 7 62 29 123 43
123 5 0 12 25 16 56 5 45 11 57 29 64 26 9 36 36 36 93 l0 37 -58 0 c-53 0
-61 -3 -92 -35 -20 -20 -44 -35 -57 -35 -13 0 -42 -13 -65 -30 -22 -16 -54
-30 -69 -30 -18 0 -32 -7 -39 -20 -6 -11 -17 -20 -24 -20 -8 0 -19 -7 -26 -15
-7 -8 -24 -15 -37 -15 -16 0 -27 -7 -30 -18 -3 -12 -24 -25 -60 -36 -36 -12
-57 -24 -60 -36 -3 -11 -18 -21 -39 -25 -19 -3 -34 -11 -34 -16 0 -16 -43 -48
-65 -49 -27 0 -41 -11 -49 -37 -4 -13 -15 -23 -25 -23 -10 0 -32 -14 -50 -30
-17 -17 -44 -33 -59 -36 -16 -3 -34 -17 -44 -35 -10 -17 -25 -29 -38 -29 -12
0 -25 -10 -31 -24 -7 -14 -22 -27 -35 -30 -13 -3 -29 -18 -36 -34 -7 -15 -23
-28 -36 -30 -12 -2 -22 -7 -22 -11 0 -4 -28 -31 -62 -60 -131 -110 -388 -375
-388 -399 0 -6 -9 -13 -19 -17 -11 -3 -24 -19 -30 -35 -6 -20 -17 -30 -30 -30
-15 0 -22 -9 -27 -34 -5 -28 -11 -35 -33 -38 -21 -2 -27 -9 -29 -34 -2 -22 -9
-34 -23 -37 -11 -3 -28 -25 -39 -50 -11 -25 -27 -48 -35 -51 -9 -3 -23 -22
-31 -41 -8 -19 -21 -35 -29 -35 -8 0 -18 -12 -21 -27 -8 -31 -30 -69 -56 -95
-10 -10 -18 -26 -18 -36 0 -10 -11 -24 -24 -32 -25 -13 -36 -37 -36 -78 0 -16
-8 -26 -29 -33 -24 -9 -30 -17 -36 -55 -4 -29 -15 -53 -30 -66 -12 -11 -29
-41 -36 -66 -7 -26 -21 -53 -31 -60 -10 -7 -18 -22 -18 -32 0 -10 -13 -39 -30
-63 -16 -25 -30 -55 -30 -66 0 -34 -26 -88 -49 -101 -17 -8 -21 -20 -21 -58 0
-38 -7 -57 -30 -89 -22 -30 -32 -56 -36 -102 -4 -33 -11 -61 -15 -61 -12 0
-35 -59 -44 -111 -4 -24 -18 -64 -30 -89 -13 -27 -25 -75 -29 -120 -5 -48 -18
-99 -37 -142 -25 -57 -29 -79 -29 -160 0 -79 -4 -102 -27 -153 l-27 -60 -4
-584 c-2 -524 -1 -589 14 -635 9 -28 21 -57 26 -63 6 -7 14 -74 18 -148 5 -93
12 -141 22 -153 27 -32 39 -75 45 -156 4 -57 11 -86 23 -97 9 -10 22 -46 29
-80 6 -35 22 -86 36 -114 13 -27 27 -72 30 -98 5 -34 15 -56 36 -78 23 -23 29
-39 29 -72 0 -41 17 -79 47 -103 7 -7 16 -35 20 -63 4 -36 12 -54 27 -65 13
-8 27 -34 35 -65 8 -31 18 -51 27 -51 7 0 16 -12 20 -27 10 -45 34 -94 50
-100 8 -3 14 -13 14 -24 0 -29 33 -87 53 -92 11 -4 17 -15 17 -34 0 -22 7 -33
25 -41 18 -8 29 -25 37 -58 7 -25 21 -50 30 -55 10 -5 25 -25 33 -44 7 -19 20
-35 27 -35 7 0 24 -23 37 -51 13 -27 32 -54 42 -60 10 -5 19 -21 21 -36 2 -19
10 -29 28 -33 18 -4 26 -14 30 -35 4 -21 12 -31 26 -33 13 -2 25 -15 33 -37 7
-19 19 -35 27 -35 8 0 14 -6 14 -13 0 -8 9 -22 20 -32 11 -10 20 -24 20 -32 0
-7 11 -18 24 -23 13 -4 26 -20 30 -34 3 -13 15 -28 27 -31 11 -4 24 -18 29
-31 5 -13 21 -29 35 -34 15 -6 25 -17 25 -30 0 -13 11 -25 35 -34 24 -10 35
-22 35 -35 0 -14 7 -21 19 -21 22 0 37 -17 43 -45 2 -12 13 -21 26 -23 12 -2
29 -16 37 -33 9 -16 23 -29 33 -29 9 0 22 -10 27 -22 6 -13 20 -28 33 -34 13
-6 29 -20 37 -31 7 -10 32 -28 54 -38 23 -11 44 -28 47 -38 3 -10 18 -20 34
-23 21 -5 29 -13 34 -35 5 -24 10 -29 36 -29 18 0 30 -5 30 -13 0 -19 30 -44
63 -52 16 -4 38 -20 49 -36 14 -18 31 -29 46 -29 15 0 26 -7 29 -19 3 -11 23
-26 48 -35 23 -9 50 -25 60 -36 9 -10 30 -22 47 -25 17 -4 33 -16 38 -30 10
-25 29 -35 71 -35 22 0 32 -7 44 -30 13 -25 23 -30 66 -36 39 -5 53 -12 57
-26 3 -11 17 -21 34 -25 15 -3 31 -10 34 -14 3 -5 12 -9 20 -9 8 0 23 -9 33
-19 11 -11 41 -22 70 -26 42 -6 52 -11 57 -30 5 -21 14 -24 70 -30 35 -4 64
-11 64 -16 0 -5 6 -9 13 -9 8 0 22 -9 32 -20 12 -13 31 -20 54 -20 20 0 63
-13 96 -30 33 -17 84 -33 113 -36 28 -4 52 -11 52 -16 0 -14 48 -28 145 -45
50 -8 97 -21 105 -28 18 -15 52 -21 184 -35 64 -7 109 -17 125 -28 27 -18 140
-28 573 -51 269 -15 876 18 948 51 19 9 89 23 155 31 70 8 139 23 165 35 25
11 79 25 120 31 41 6 93 20 115 30 22 10 66 25 98 32 31 6 57 16 57 20 0 14
35 28 100 38 44 7 71 18 89 35 18 17 43 27 78 32 29 3 54 12 57 20 6 15 55 38
104 47 19 4 47 18 64 32 16 14 36 25 45 25 8 0 28 11 43 24 16 13 47 26 69 30
26 4 41 12 41 21 0 21 40 45 77 45 26 0 36 6 47 29 11 21 25 30 53 36 23 4 49
18 65 36 15 16 36 29 47 29 13 0 21 8 23 22 2 14 11 24 23 26 31 5 68 25 92
49 12 13 30 23 40 23 11 0 23 12 30 30 8 22 18 30 36 30 16 0 28 7 31 18 6 17
58 52 79 52 7 0 19 13 29 29 9 17 26 31 40 33 15 2 24 11 26 26 3 16 12 25 32
29 22 4 31 13 35 34 5 24 12 29 35 29 24 0 29 5 32 27 2 22 9 29 33 33 22 4
31 11 33 28 2 15 14 27 32 33 16 6 31 20 34 33 3 13 15 26 26 29 11 3 24 17
30 31 6 16 17 26 29 26 15 0 23 9 29 33 6 25 14 33 35 35 21 3 27 9 27 29 0
18 8 28 30 36 19 7 31 20 35 38 4 18 14 29 28 31 13 2 23 12 27 28 3 14 16 29
28 35 12 5 22 15 22 22 0 14 22 44 58 78 12 12 22 32 22 45 0 15 9 25 30 33
23 9 30 17 30 39 0 18 5 28 15 28 18 0 55 56 55 83 0 10 11 22 25 27 16 6 25
17 25 30 0 12 11 31 23 43 13 12 32 43 42 69 10 27 26 50 36 53 11 4 19 15 19
26 0 21 36 78 58 92 6 4 12 21 12 37 0 17 9 39 20 50 11 11 20 25 20 30 0 6 4
10 9 10 5 0 12 18 16 41 4 23 16 50 26 60 20 20 49 91 49 121 0 9 8 21 17 26
9 5 22 34 30 63 8 31 22 60 33 68 13 9 20 25 20 45 0 46 29 125 50 136 14 8
19 25 22 86 3 58 8 79 21 89 21 15 47 103 47 160 0 23 9 59 20 80 12 24 28 88
37 155 9 63 19 117 23 120 18 15 30 108 40 305 6 121 15 243 19 270 14 78 11
328 -4 450 -7 61 -16 189 -20 285 -5 140 -11 183 -26 215 -10 22 -23 85 -29
140 -12 106 -25 161 -45 185 -7 8 -15 53 -19 100 -4 47 -11 86 -16 88 -6 2
-10 9 -10 16 0 8 -9 25 -20 39 -14 18 -20 40 -20 76 0 50 -19 96 -46 113 -7 5
-15 36 -19 70 -4 35 -17 78 -29 98 -12 19 -28 55 -36 80 -8 25 -22 53 -32 63
-10 10 -18 25 -18 35 0 38 -22 91 -39 97 -14 4 -21 19 -26 55 -5 40 -13 54
-36 71 -21 15 -29 29 -29 50 0 38 -16 69 -35 69 -9 0 -19 17 -26 44 -6 24 -22
55 -35 67 -13 12 -24 31 -24 41 0 11 -10 29 -23 41 -24 24 -44 61 -49 92 -2
12 -12 21 -25 23 -15 2 -23 13 -27 38 -4 20 -13 34 -21 34 -8 0 -15 6 -15 14
0 8 -6 16 -14 19 -7 3 -16 18 -19 34 -4 18 -15 34 -31 41 -14 6 -28 22 -32 36
-3 14 -17 32 -30 41 -13 8 -24 22 -24 29 0 8 -12 28 -27 44 -36 37 -63 74 -63
84 0 4 -6 8 -14 8 -7 0 -19 14 -26 30 -7 17 -22 33 -36 36 -15 4 -24 14 -26
32 -2 19 -10 28 -28 32 -17 4 -28 16 -35 38 -7 24 -15 32 -32 32 -16 0 -25 8
-29 26 -4 14 -17 30 -30 35 -14 5 -28 19 -33 32 -5 14 -19 27 -30 30 -11 3
-25 16 -30 30 -5 13 -21 27 -35 31 -15 4 -26 14 -28 28 -2 15 -13 24 -35 30
-18 5 -33 15 -33 23 0 8 -12 22 -27 32 -16 10 -43 33 -62 50 -19 18 -42 33
-53 33 -10 0 -24 11 -30 26 -7 15 -23 27 -40 31 -21 4 -28 11 -28 29 0 19 -5
24 -25 24 -15 0 -35 11 -48 26 -12 14 -41 34 -63 45 -23 10 -44 27 -47 39 -4
15 -13 20 -36 20 -21 0 -31 5 -31 15 0 15 -68 55 -95 55 -8 0 -19 10 -24 23
-7 17 -23 27 -61 37 -34 9 -55 21 -58 32 -2 9 -18 20 -34 24 -17 3 -40 17 -52
31 -14 16 -36 26 -64 30 -32 4 -46 12 -54 29 -11 24 -35 34 -81 34 -20 0 -30
7 -37 24 -10 27 -55 46 -111 46 -63 0 -85 -44 -38 -77 10 -8 20 -33 24 -63 4
-28 12 -53 19 -58 26 -16 46 -63 46 -110 0 -27 6 -57 15 -68 8 -10 15 -25 15
-33 0 -8 6 -22 14 -30 7 -9 19 -52 25 -96 6 -43 15 -82 19 -85 10 -7 32 -81
32 -108 0 -26 66 -92 92 -92 10 0 22 -10 28 -24 6 -16 20 -27 40 -31 17 -4 34
-13 37 -21 3 -9 26 -24 50 -36 24 -11 51 -31 60 -44 9 -14 25 -24 39 -24 17 0
27 -8 34 -25 5 -14 18 -28 27 -32 10 -3 27 -14 38 -24 35 -33 131 -106 153
-118 12 -6 22 -18 22 -27 0 -8 13 -17 29 -20 23 -5 31 -13 33 -33 2 -20 10
-27 33 -31 24 -4 31 -11 33 -33 3 -22 10 -29 33 -34 22 -4 29 -11 29 -28 0
-16 8 -26 29 -33 18 -6 31 -20 35 -36 4 -16 13 -26 25 -26 12 0 23 -11 29 -30
6 -16 22 -35 36 -42 15 -6 26 -19 26 -28 0 -9 15 -33 34 -52 19 -19 36 -43 37
-53 2 -10 18 -26 34 -35 17 -9 31 -26 33 -37 2 -12 14 -29 28 -37 13 -9 24
-22 24 -29 0 -8 11 -24 25 -37 14 -13 25 -29 25 -37 0 -7 5 -13 10 -13 6 0 10
-11 10 -25 0 -17 8 -29 25 -37 14 -6 25 -19 25 -29 0 -26 32 -78 53 -85 11 -3
17 -16 17 -34 0 -16 6 -33 13 -37 24 -15 57 -71 57 -97 0 -16 6 -26 15 -26 18
0 31 -24 40 -72 4 -20 17 -45 30 -56 15 -13 26 -37 31 -67 4 -28 16 -56 30
-70 12 -12 26 -40 29 -61 8 -48 30 -97 50 -114 10 -8 15 -30 15 -62 0 -34 4
-50 15 -54 8 -4 15 -13 15 -20 0 -8 6 -25 14 -37 8 -12 18 -49 22 -82 4 -33
16 -75 27 -95 12 -21 25 -78 34 -145 8 -60 21 -117 29 -126 9 -10 18 -59 24
-125 17 -177 30 -273 45 -332 11 -41 15 -118 15 -288 0 -195 -3 -249 -21 -336
-11 -57 -24 -152 -29 -213 -11 -141 -20 -194 -37 -227 -7 -15 -18 -65 -24
-110 -12 -93 -27 -148 -44 -163 -6 -5 -17 -46 -24 -90 -9 -56 -18 -85 -32 -97
-12 -10 -22 -35 -25 -65 -7 -46 -26 -94 -51 -120 -6 -7 -15 -38 -18 -68 -5
-40 -12 -56 -25 -60 -10 -3 -23 -19 -29 -36 -5 -16 -16 -31 -23 -33 -7 -2 -26
-8 -43 -13 -21 -6 -39 -5 -60 3 -17 7 -89 17 -161 23 -71 6 -159 19 -194 30
-43 12 -111 21 -203 25 -154 7 -355 33 -375 49 -8 6 -117 13 -271 17 -142 4
-264 11 -271 15 -7 4 -42 11 -79 16 -36 4 -108 13 -160 19 -52 6 -300 15 -551
18 -364 6 -460 10 -473 21 -17 13 -145 11 -240 -5 -30 -5 -43 -2 -60 14 -12
11 -32 23 -44 27 -18 5 -23 14 -23 38 -4 325 1 1062 7 1067 4 5 17 10 28 12
13 2 22 13 25 33 3 20 12 31 26 33 12 2 25 15 31 33 7 17 21 33 32 36 12 3 21
11 21 17 0 7 20 34 45 60 24 26 47 56 50 66 3 11 15 22 26 25 12 4 19 15 19
31 0 19 8 28 30 35 22 8 30 17 30 35 0 17 8 27 26 34 14 6 29 23 36 40 5 17
19 35 29 41 10 5 19 16 19 24 0 8 4 15 9 15 5 0 11 14 15 30 4 21 11 30 26 30
13 0 20 7 20 19 0 11 15 36 34 56 19 19 37 51 40 69 5 25 13 36 31 40 19 5 25
13 25 32 0 14 15 44 35 68 20 25 35 54 35 70 0 19 5 26 18 26 18 0 42 53 42
94 0 9 11 21 24 25 17 7 25 20 30 51 4 25 17 52 33 68 19 19 28 40 31 75 4 38
10 51 26 59 22 10 46 73 46 121 0 13 11 34 24 46 17 16 27 39 31 74 4 29 18
72 30 97 12 25 27 74 34 110 6 36 20 77 31 92 13 17 20 43 20 69 0 86 22 187
53 244 31 56 31 1031 0 1130 -9 28 -19 55 -23 60 -10 13 -30 142 -30 194 0 27
-7 48 -19 60 -11 11 -24 47 -32 92 -7 41 -22 92 -34 115 -13 22 -26 65 -30 95
-4 32 -15 61 -26 72 -10 10 -21 30 -24 45 -18 86 -30 115 -52 129 -18 12 -23
24 -23 60 0 33 -6 50 -23 66 -25 25 -47 69 -47 96 0 10 -8 21 -18 23 -12 3
-24 26 -37 67 -11 36 -24 61 -32 61 -7 0 -16 8 -19 18 -17 54 -39 92 -55 97
-13 4 -19 16 -19 35 0 18 -8 33 -23 43 -13 8 -29 33 -36 56 -6 23 -23 48 -36
57 -13 8 -27 28 -30 44 -4 16 -14 31 -23 34 -9 3 -27 28 -40 56 -13 27 -29 50
-37 50 -8 0 -18 15 -23 33 -6 25 -14 33 -35 35 -23 3 -27 8 -27 34 0 22 -6 31
-20 35 -12 3 -29 22 -40 42 -10 20 -32 49 -49 65 -17 17 -31 38 -31 47 0 11
-9 19 -22 21 -15 2 -25 13 -31 35 -7 21 -17 33 -31 35 -13 2 -22 12 -24 26 -2
16 -14 27 -33 34 -21 7 -29 17 -29 33 0 18 -7 25 -29 30 -20 4 -31 14 -35 30
-4 15 -16 27 -31 31 -15 4 -28 16 -31 29 -3 14 -16 26 -30 29 -17 5 -26 16
-31 36 -4 23 -11 30 -28 30 -18 0 -25 7 -30 29 -5 22 -14 31 -35 36 -19 4 -30
14 -34 31 -5 20 -13 24 -41 24 -26 0 -43 -9 -69 -35z m114 -860 c0 -18 7 -26
25 -31 16 -4 28 -17 35 -37 5 -18 26 -50 45 -71 19 -22 35 -44 35 -49 0 -5 11
-18 25 -29 14 -11 25 -28 25 -39 0 -12 9 -21 25 -25 17 -4 25 -13 25 -28 0
-12 16 -37 34 -55 22 -21 36 -45 38 -65 2 -23 9 -32 28 -36 16 -4 26 -14 28
-29 2 -13 19 -43 38 -68 19 -24 34 -53 34 -64 0 -11 7 -22 15 -26 17 -6 45
-65 45 -94 0 -11 10 -23 24 -29 19 -7 25 -19 31 -57 5 -34 14 -54 32 -68 18
-15 26 -34 30 -69 4 -36 11 -50 24 -53 18 -5 27 -26 47 -119 5 -23 18 -50 29
-61 12 -12 24 -46 32 -94 7 -44 20 -82 30 -94 13 -13 23 -47 29 -100 14 -109
22 -138 39 -152 10 -8 17 -49 23 -150 5 -76 14 -167 21 -203 15 -83 15 -360
-1 -425 -6 -27 -15 -111 -19 -185 -5 -95 -12 -143 -23 -160 -18 -28 -34 -97
-44 -184 -4 -35 -14 -66 -24 -76 -17 -17 -40 -99 -40 -143 0 -12 -10 -33 -23
-47 -13 -14 -28 -51 -35 -85 -9 -44 -19 -65 -37 -78 -17 -12 -25 -28 -25 -47
0 -41 -17 -80 -34 -80 -14 0 -36 -55 -36 -91 0 -9 -10 -23 -23 -32 -14 -9 -28
-34 -36 -65 -9 -32 -21 -52 -32 -55 -9 -3 -20 -18 -23 -34 -4 -16 -18 -41 -31
-55 -13 -14 -27 -38 -31 -52 -3 -15 -19 -35 -35 -47 -16 -11 -29 -28 -29 -38
0 -10 -16 -35 -35 -55 -19 -21 -35 -48 -35 -61 0 -17 -8 -26 -30 -34 -23 -7
-30 -16 -30 -35 0 -19 -7 -27 -25 -32 -14 -3 -25 -13 -25 -22 0 -20 -29 -52
-47 -52 -7 0 -13 -8 -13 -17 0 -9 -17 -34 -37 -55 -35 -35 -41 -38 -96 -38
-54 0 -59 2 -68 28 -5 15 -19 32 -32 37 -12 6 -23 20 -25 32 -2 15 -13 25 -28
29 -17 4 -24 13 -24 30 0 15 -10 29 -28 40 -16 9 -34 32 -41 50 -7 19 -26 44
-42 56 -17 13 -29 31 -29 45 0 16 -7 24 -25 29 -16 4 -25 13 -25 26 0 25 -24
69 -49 90 -12 10 -21 29 -21 42 0 17 -6 26 -21 28 -17 2 -25 15 -34 53 -8 31
-23 57 -39 70 -14 11 -26 29 -26 39 0 10 -13 35 -29 55 -15 20 -31 53 -35 75
-4 21 -18 49 -30 61 -13 13 -26 42 -30 65 -8 52 -22 80 -40 80 -10 0 -16 19
-21 60 -4 33 -11 60 -16 60 -5 0 -9 9 -9 20 0 11 -9 28 -20 37 -15 13 -20 30
-20 69 0 34 -5 56 -15 64 -8 7 -15 21 -15 30 0 10 -5 20 -12 22 -8 3 -14 39
-18 99 -3 59 -12 106 -22 125 -35 65 -43 157 -43 519 0 359 8 460 43 512 8 13
17 65 22 124 4 56 13 106 19 112 6 6 11 19 11 28 0 9 7 22 15 29 10 8 15 30
15 61 0 33 6 55 18 67 21 22 40 73 48 134 5 33 12 48 24 51 18 5 40 61 40 103
0 12 11 29 24 38 18 11 27 29 31 60 5 28 16 53 31 67 14 13 27 40 31 62 4 27
12 41 28 47 20 7 45 64 45 101 0 8 10 19 22 24 13 6 25 19 27 30 2 11 18 40
36 65 18 25 35 56 36 70 3 17 11 26 27 28 15 2 22 10 22 25 0 12 16 37 34 55
19 19 36 47 40 62 3 20 12 30 28 32 15 2 25 13 32 36 5 17 15 32 23 32 8 0 20
15 28 33 8 17 28 48 44 67 17 19 31 40 31 46 0 22 26 34 72 34 44 0 48 -2 48
-25z m545 -6746 c149 -6 289 -10 313 -10 24 1 72 -6 108 -14 45 -10 122 -15
252 -15 318 -1 538 -17 722 -52 30 -6 156 -13 280 -17 184 -5 231 -9 251 -22
35 -23 163 -38 387 -46 185 -6 193 -7 216 -30 48 -47 38 -84 -46 -172 -27 -27
-48 -56 -48 -65 0 -9 -16 -24 -35 -33 -24 -12 -35 -23 -35 -39 0 -14 -8 -24
-23 -28 -13 -3 -27 -18 -34 -36 -8 -20 -18 -30 -32 -30 -16 0 -21 -6 -21 -25
0 -20 -6 -27 -31 -32 -20 -4 -34 -14 -40 -29 -7 -21 -15 -24 -63 -24 -31 0
-56 5 -58 11 -7 22 -134 38 -338 45 -122 3 -225 11 -255 19 -80 22 -237 34
-583 45 -178 6 -343 15 -368 20 -170 38 -2011 39 -2209 1 -28 -5 -203 -14
-390 -20 -354 -11 -487 -22 -592 -46 -34 -8 -101 -15 -150 -15 -144 -1 -388
-19 -391 -30 -2 -5 -12 -10 -22 -10 -10 0 -29 -6 -43 -13 -40 -21 -94 -10
-118 24 -11 16 -29 29 -40 29 -12 0 -19 7 -19 20 0 13 -13 28 -35 41 -19 12
-35 29 -35 38 0 10 -11 23 -25 29 -14 6 -25 18 -25 27 0 8 -4 15 -10 15 -5 0
-10 6 -10 13 -1 16 -35 57 -48 57 -5 0 -13 11 -16 25 -4 14 -17 31 -30 36 -14
7 -26 23 -29 39 -4 16 -14 30 -26 33 -29 7 -27 41 3 55 13 6 27 19 30 30 6 17
21 19 203 25 187 6 352 23 363 37 14 18 115 30 256 30 86 0 202 7 258 15 55 8
149 21 207 30 67 9 221 17 420 21 173 3 339 10 369 16 174 32 1121 48 1635 27z
m94 -1169 c288 -6 529 -14 535 -18 24 -19 195 -32 491 -38 214 -4 312 -10 317
-18 11 -16 10 -64 -2 -87 -6 -10 -21 -19 -34 -19 -13 0 -39 -13 -57 -30 -23
-20 -49 -32 -82 -36 -35 -5 -53 -13 -63 -30 -10 -14 -34 -27 -65 -35 -28 -7
-55 -21 -60 -31 -5 -10 -18 -18 -27 -18 -25 0 -94 -37 -105 -55 -5 -10 -24
-15 -63 -15 -48 0 -56 -3 -65 -24 -13 -27 -25 -32 -116 -42 -38 -4 -63 -11
-63 -18 0 -17 -87 -46 -136 -46 -25 0 -59 -10 -85 -24 -27 -15 -76 -29 -129
-36 -47 -7 -89 -16 -95 -21 -5 -5 -17 -9 -27 -9 -10 0 -18 -4 -18 -8 0 -5 -53
-12 -117 -15 -65 -3 -183 -18 -263 -32 -257 -46 -514 -44 -755 5 -55 11 -154
23 -220 26 -85 4 -132 12 -160 24 -22 11 -84 27 -137 36 -54 10 -98 21 -98 25
0 11 -57 27 -127 34 -35 4 -63 11 -63 16 0 5 -6 9 -14 9 -7 0 -19 6 -25 14 -6
7 -38 16 -70 20 -41 5 -71 15 -98 35 -23 17 -58 30 -88 34 -32 5 -56 14 -65
27 -17 22 -60 40 -94 40 -15 0 -26 7 -28 18 -4 13 -25 24 -66 36 -41 11 -63
23 -67 35 -4 14 -19 21 -56 26 -37 5 -54 13 -66 31 -8 13 -32 28 -53 34 -44
12 -58 26 -66 68 -5 23 -2 32 12 40 11 6 164 13 344 17 266 5 343 10 425 27
85 17 159 21 505 27 616 11 887 12 1459 1z"/>
<path d="M1620 7138 c-25 -5 -54 -13 -65 -18 -43 -19 -117 -40 -144 -40 -20 0
-36 -11 -60 -40 l-32 -40 16 -53 c14 -47 15 -195 11 -1313 -3 -692 -6 -1286
-8 -1319 l-3 -60 69 -22 c39 -13 74 -29 78 -38 7 -12 35 -15 153 -15 138 0
146 1 182 26 l38 25 5 557 5 557 296 5 c254 4 300 7 315 21 28 24 80 39 162
46 62 5 76 10 89 30 9 13 25 23 39 23 12 0 26 5 29 10 3 6 15 10 25 10 11 0
24 9 30 20 6 11 20 20 31 20 12 0 34 14 49 30 15 17 33 30 39 30 17 0 141 125
141 142 0 8 14 27 30 41 17 15 30 37 30 48 0 12 8 23 20 26 11 3 20 13 20 23
0 28 41 144 57 162 13 15 16 54 15 250 0 228 0 234 -24 278 -14 25 -31 69 -38
98 -8 29 -19 52 -27 52 -7 0 -16 12 -19 28 -4 15 -19 41 -34 57 -15 17 -35 45
-44 63 -9 17 -20 32 -25 32 -9 0 -118 80 -147 109 -12 12 -25 21 -30 21 -22 0
-94 34 -94 45 0 8 -23 15 -61 19 -34 4 -69 11 -78 16 -9 5 -23 11 -31 15 -8 3
-26 12 -40 20 -21 12 -99 15 -475 14 -247 -1 -470 -5 -495 -11z m901 -328 c24
-19 54 -31 87 -36 41 -5 51 -10 54 -27 2 -14 14 -24 36 -31 24 -7 32 -15 32
-31 0 -17 7 -24 30 -29 24 -4 32 -12 36 -36 4 -16 10 -30 15 -30 15 0 42 -50
50 -96 5 -25 17 -62 26 -82 25 -51 25 -225 1 -262 -9 -14 -20 -43 -23 -65 -15
-90 -25 -115 -45 -115 -13 0 -20 -7 -20 -19 0 -28 -11 -51 -24 -51 -6 0 -20
-14 -31 -30 -11 -16 -27 -30 -35 -30 -8 0 -22 -13 -31 -29 -10 -17 -28 -30
-47 -34 -18 -4 -33 -14 -37 -26 -4 -13 -19 -21 -50 -26 -25 -3 -57 -13 -73
-21 -15 -7 -32 -14 -39 -14 -6 0 -13 -6 -15 -12 -4 -10 -63 -14 -241 -16
l-236 -4 -41 34 -40 33 0 531 c0 509 1 533 19 555 18 23 27 24 158 29 76 3
208 3 293 2 153 -4 155 -4 191 -32z"/>
<path d="M6815 7145 c-5 -2 -27 -6 -48 -10 -20 -3 -45 -14 -55 -25 -9 -10 -29
-21 -44 -25 l-28 -7 0 -1427 0 -1428 26 -24 26 -24 526 0 c519 0 528 0 572 22
53 25 99 39 157 48 23 4 44 12 46 19 3 8 18 17 34 20 94 23 103 27 103 46 0
13 7 20 19 20 28 0 51 11 51 24 0 6 16 22 35 35 19 13 35 27 35 32 0 5 6 9 14
9 8 0 18 9 21 20 3 11 11 20 16 20 5 0 9 6 9 13 0 7 11 23 25 35 14 12 25 28
25 35 0 7 14 24 30 39 25 22 30 34 30 72 0 25 4 46 10 46 5 0 20 19 32 43 22
39 23 54 23 237 0 173 -2 199 -19 230 -11 19 -25 40 -31 45 -7 6 -15 30 -18
55 -4 32 -13 51 -31 65 -13 11 -28 32 -31 47 -4 16 -16 28 -30 32 -12 3 -25
15 -28 27 -3 11 -15 23 -26 26 -12 3 -24 16 -27 29 -4 15 -16 25 -35 29 -19 4
-31 14 -35 30 -6 26 -15 30 -86 40 -26 3 -49 12 -52 20 -3 8 -10 15 -16 15
-17 0 -70 42 -70 56 0 6 6 17 14 24 8 6 16 21 18 33 2 16 14 23 53 32 60 13
75 21 75 40 0 7 13 16 29 20 22 5 31 14 36 36 5 22 12 29 30 29 17 0 24 7 29
31 3 19 13 33 25 36 13 3 26 22 37 57 9 28 23 56 32 63 57 46 53 490 -6 554
-12 12 -22 29 -22 36 0 16 -50 93 -60 93 -4 0 -11 11 -14 25 -4 14 -14 29 -24
32 -9 3 -26 14 -37 24 -11 10 -30 27 -42 39 -13 11 -27 20 -32 20 -5 0 -14 7
-21 14 -6 8 -28 20 -48 27 -20 7 -46 22 -58 34 -15 17 -38 25 -84 30 -41 5
-80 17 -112 36 l-49 29 -457 -1 c-251 0 -461 -2 -467 -4z m715 -300 c147 -7
170 -11 170 -28 0 -15 67 -47 98 -47 15 0 22 -6 22 -19 0 -12 11 -21 33 -27
24 -7 33 -16 35 -36 2 -18 10 -28 24 -30 13 -2 25 -15 32 -33 6 -17 21 -46 32
-65 39 -63 42 -327 5 -337 -10 -2 -23 -26 -31 -56 -10 -35 -22 -55 -37 -62
-12 -5 -25 -21 -28 -36 -4 -19 -14 -28 -34 -32 -16 -4 -32 -16 -39 -31 -8 -18
-24 -29 -57 -37 -25 -6 -52 -20 -60 -31 -11 -16 -35 -23 -122 -34 -59 -8 -119
-18 -133 -23 -14 -5 -96 -12 -183 -14 -143 -5 -159 -4 -175 13 -9 9 -27 21
-39 24 l-23 7 0 449 0 450 23 14 c23 16 259 37 327 30 19 -2 91 -6 160 -9z m6
-1274 c21 -10 79 -26 128 -34 59 -10 92 -20 98 -31 5 -9 18 -16 28 -16 10 0
21 -4 24 -9 3 -4 19 -11 36 -14 17 -4 30 -13 30 -22 0 -8 15 -21 34 -29 23
-10 35 -22 38 -38 2 -15 11 -24 25 -26 13 -2 24 -13 28 -30 3 -14 17 -37 30
-49 12 -13 26 -40 29 -61 4 -20 16 -74 28 -120 16 -64 18 -88 10 -110 -6 -15
-18 -65 -27 -112 -9 -47 -22 -89 -28 -95 -20 -16 -47 -63 -47 -80 0 -8 -12
-20 -26 -25 -14 -6 -28 -19 -31 -30 -3 -11 -15 -22 -27 -26 -11 -4 -39 -22
-60 -40 -22 -19 -51 -34 -65 -35 -14 0 -39 -9 -56 -20 -16 -10 -34 -21 -40
-23 -31 -14 -281 -40 -413 -43 -140 -4 -158 -2 -193 17 -22 11 -46 20 -54 20
-13 0 -15 69 -15 522 l0 521 28 28 27 28 211 1 c186 0 215 -2 250 -19z"/>
<path d="M13110 7135 c-14 -8 -32 -17 -40 -20 -8 -4 -23 -11 -32 -16 -10 -5
-50 -12 -90 -16 -58 -5 -76 -11 -90 -28 -10 -13 -38 -26 -70 -34 -30 -6 -62
-20 -71 -31 -9 -11 -24 -20 -32 -20 -18 0 -67 -29 -78 -46 -4 -7 -21 -15 -38
-19 -22 -5 -34 -15 -41 -36 -7 -21 -17 -29 -33 -29 -15 0 -26 -8 -30 -19 -3
-11 -15 -23 -26 -26 -10 -4 -19 -11 -19 -16 0 -5 -5 -9 -10 -9 -6 0 -27 -19
-48 -42 -20 -23 -46 -51 -58 -62 -12 -12 -24 -31 -28 -43 -4 -13 -15 -23 -26
-23 -19 0 -30 -19 -30 -51 0 -12 -7 -19 -19 -19 -13 0 -21 -9 -26 -30 -4 -16
-11 -32 -16 -35 -5 -4 -9 -15 -9 -25 0 -11 -9 -24 -20 -30 -11 -6 -20 -20 -20
-31 0 -25 -27 -78 -51 -102 -14 -13 -19 -32 -19 -66 0 -31 -5 -53 -15 -61 -8
-7 -15 -19 -15 -27 0 -8 -6 -20 -13 -28 -19 -19 -41 -265 -41 -465 0 -289 26
-481 71 -528 7 -8 13 -38 13 -68 0 -39 4 -56 15 -60 8 -4 15 -11 15 -16 0 -5
9 -21 20 -35 11 -14 20 -36 20 -49 0 -13 4 -24 9 -24 11 0 51 -75 51 -96 0 -8
11 -19 24 -23 15 -6 25 -20 29 -39 4 -22 13 -31 29 -34 13 -2 24 -11 27 -23 4
-22 143 -165 160 -165 6 0 18 -11 27 -25 10 -15 26 -25 40 -25 17 0 25 -7 30
-25 5 -19 16 -28 48 -36 22 -6 47 -13 54 -15 8 -2 16 -13 19 -23 3 -14 21 -23
65 -32 33 -8 63 -19 65 -26 3 -7 12 -13 21 -13 18 0 78 -18 104 -31 10 -5 25
-9 34 -9 9 0 23 -8 30 -17 11 -17 45 -18 462 -18 391 0 452 2 468 15 22 18 71
36 128 46 39 7 111 49 136 79 10 12 10 21 1 38 -6 12 -15 57 -20 101 -9 75
-19 95 -48 96 -6 0 -14 9 -18 19 -8 26 -28 32 -56 16 -52 -30 -87 -42 -134
-49 -28 -4 -70 -17 -95 -28 -41 -19 -65 -20 -305 -21 -244 0 -263 1 -308 21
-26 12 -65 24 -85 27 -71 12 -124 30 -133 46 -5 10 -28 20 -54 23 -32 5 -50
14 -61 31 -8 13 -26 26 -38 29 -13 3 -31 17 -40 31 -9 14 -23 25 -32 25 -22 0
-154 139 -154 162 0 10 -11 24 -25 30 -16 7 -25 19 -25 34 0 14 -10 30 -23 39
-22 14 -38 50 -52 117 -3 15 -13 35 -24 45 -11 11 -22 45 -29 88 -6 39 -22 99
-34 135 -21 60 -23 82 -23 285 0 196 2 224 19 260 11 22 26 84 35 138 12 71
20 99 32 102 16 5 39 65 39 102 0 12 8 23 18 25 10 3 25 27 36 58 11 29 26 55
36 57 9 2 20 19 26 36 6 22 16 33 32 35 16 3 25 12 28 32 5 21 13 29 35 34 21
4 29 11 29 26 0 14 11 26 34 35 18 8 36 23 38 33 4 13 18 22 43 26 20 4 48 18
60 30 13 13 37 28 55 34 17 6 43 20 58 30 15 11 52 22 82 26 63 8 119 25 137
43 21 19 108 25 324 21 175 -3 208 -6 229 -20 13 -10 32 -18 42 -18 10 0 18
-4 18 -9 0 -4 28 -12 63 -15 34 -4 69 -14 78 -22 28 -26 78 -35 92 -17 6 8 22
25 34 37 31 32 43 69 43 136 0 43 4 61 16 68 12 6 14 17 9 43 -4 20 -10 41
-15 48 -4 8 -47 20 -94 27 -48 8 -99 22 -114 32 -23 15 -65 17 -422 20 -333 2
-399 0 -420 -13z"/>
<path d="M3891 7128 c-10 -3 -31 -22 -46 -42 l-27 -35 2 -913 c0 -502 5 -929
9 -948 5 -19 12 -83 16 -141 6 -107 19 -163 45 -193 7 -10 15 -42 18 -72 3
-32 9 -54 16 -54 15 0 46 -63 46 -92 0 -12 11 -31 25 -43 14 -11 32 -38 39
-60 10 -27 21 -42 37 -45 16 -4 27 -17 33 -38 6 -21 15 -32 27 -32 10 0 25
-13 34 -30 9 -18 23 -30 36 -30 11 0 22 -7 25 -15 7 -17 69 -55 90 -55 8 0 23
-9 33 -19 10 -10 36 -24 57 -31 22 -7 48 -17 59 -23 82 -44 64 -42 432 -42
341 0 352 1 375 21 26 23 71 44 95 44 9 0 25 8 36 17 10 10 42 25 70 33 40 12
53 21 55 38 2 15 10 22 24 22 36 0 218 182 218 217 0 14 10 27 27 35 20 10 30
25 39 63 7 27 21 56 32 65 10 8 24 40 32 70 7 30 20 60 27 65 9 7 18 44 24 95
12 103 36 226 49 250 7 14 14 1191 10 1833 0 30 -4 37 -19 37 -11 0 -26 8 -33
18 -23 32 -40 36 -163 39 l-120 2 -20 -29 c-11 -17 -25 -30 -31 -30 -7 0 -15
-8 -18 -17 -4 -9 -6 -415 -6 -902 2 -995 -6 -1177 -51 -1188 -14 -4 -19 -15
-19 -42 0 -54 -30 -131 -52 -131 -14 0 -18 -8 -18 -35 0 -28 -4 -35 -19 -35
-22 0 -37 -17 -43 -45 -2 -12 -13 -21 -26 -23 -13 -2 -24 -13 -28 -27 -3 -14
-16 -27 -27 -31 -12 -3 -29 -15 -38 -26 -16 -21 -79 -48 -111 -48 -10 0 -18
-7 -18 -15 0 -25 -46 -30 -262 -30 -202 0 -207 1 -228 23 -11 12 -29 22 -40
22 -10 0 -21 4 -24 9 -3 4 -19 11 -36 14 -21 5 -30 12 -30 27 0 14 -7 20 -23
20 -27 0 -47 17 -47 41 0 11 -9 19 -22 21 -16 2 -26 13 -33 36 -6 20 -15 32
-27 32 -11 0 -20 10 -24 27 -9 33 -43 93 -54 93 -4 0 -10 27 -14 59 -4 33 -13
65 -21 71 -8 7 -15 19 -15 28 0 8 -7 23 -16 33 -14 16 -16 116 -15 1016 1 549
-2 1003 -7 1009 -4 6 -16 14 -28 18 -12 3 -26 17 -32 30 -11 24 -13 24 -126
23 -64 -1 -124 -5 -135 -9z"/>
<path d="M9068 7109 c-17 -16 -37 -29 -44 -29 -8 0 -14 -10 -14 -22 0 -13 0
-650 -1 -1417 l0 -1395 25 -13 c15 -8 26 -22 26 -33 0 -20 11 -20 780 -20 670
0 780 2 780 14 0 8 9 18 20 21 27 9 31 32 28 160 -3 99 -5 110 -22 113 -11 2
-27 12 -35 21 -15 15 -64 16 -576 11 -308 -3 -567 -4 -575 -2 -29 7 -59 58
-58 98 0 22 2 583 4 1248 3 1193 3 1208 -16 1213 -11 3 -20 11 -20 19 0 26
-45 37 -158 40 -113 3 -114 3 -144 -27z"/>
<path d="M11127 7128 c-9 -5 -17 -16 -17 -24 0 -8 -11 -19 -24 -24 -19 -7 -25
-17 -28 -47 -2 -21 -1 -657 2 -1413 l5 -1375 23 -10 c13 -6 22 -18 22 -33 l0
-23 153 3 c150 3 152 3 155 26 2 13 13 28 25 33 l22 10 -2 1406 -2 1405 -36
34 c-20 19 -44 35 -53 35 -87 7 -232 5 -245 -3z"/>
<path d="M15494 7125 c-17 -8 -34 -21 -37 -30 -4 -8 -15 -15 -26 -15 -22 0
-25 -8 -41 -99 -7 -41 -18 -70 -31 -80 -13 -11 -22 -34 -26 -71 -3 -30 -9 -57
-13 -60 -17 -13 -50 -101 -56 -150 -4 -36 -14 -64 -29 -80 -14 -15 -25 -44
-29 -75 -10 -68 -24 -112 -40 -118 -8 -3 -17 -30 -21 -66 -4 -34 -11 -64 -16
-67 -5 -3 -9 -13 -9 -23 0 -10 -6 -24 -14 -30 -8 -6 -17 -36 -21 -66 -3 -30
-12 -58 -18 -62 -25 -17 -47 -76 -47 -129 0 -40 -4 -56 -15 -61 -21 -7 -43
-63 -51 -126 -4 -29 -15 -61 -25 -73 -11 -12 -26 -54 -34 -98 -8 -43 -24 -91
-35 -106 -11 -15 -20 -39 -20 -53 0 -38 -21 -90 -42 -108 -15 -12 -21 -32 -25
-85 -4 -55 -10 -74 -30 -95 -18 -20 -26 -42 -32 -99 -6 -56 -12 -76 -28 -89
-24 -18 -43 -78 -43 -134 0 -30 -4 -40 -20 -44 -12 -3 -20 -14 -20 -26 0 -41
-33 -142 -51 -159 -12 -10 -19 -30 -19 -50 0 -49 -29 -127 -51 -139 -16 -8
-19 -21 -19 -82 0 -40 4 -78 9 -85 6 -10 44 -13 169 -10 174 3 161 -1 209 63
5 6 14 17 20 26 7 9 19 51 28 94 8 45 23 87 34 99 11 12 21 44 25 76 9 69 26
120 42 120 16 0 24 24 24 76 0 29 10 61 29 98 17 30 33 71 36 93 7 40 35 106
48 111 4 2 7 12 7 22 0 10 7 26 16 34 14 14 72 16 490 16 551 0 538 2 549 -77
4 -26 12 -53 19 -58 26 -23 46 -76 46 -122 0 -32 7 -56 20 -73 11 -14 20 -31
20 -37 0 -7 4 -13 9 -13 5 0 12 -27 16 -60 5 -44 12 -63 26 -71 10 -5 19 -17
19 -25 0 -8 7 -46 16 -84 11 -51 20 -69 35 -73 13 -4 19 -14 19 -35 0 -16 3
-51 7 -77 5 -38 12 -51 34 -64 16 -9 29 -21 29 -28 0 -7 9 -17 19 -23 22 -11
310 -14 328 -2 33 21 39 140 9 167 -22 20 -40 61 -47 109 -5 27 -17 59 -29 71
-14 15 -24 47 -32 103 -9 62 -16 83 -30 87 -20 7 -23 16 -39 108 -7 43 -17 72
-29 80 -10 7 -20 32 -24 62 -10 70 -26 118 -44 132 -8 7 -17 34 -20 62 -2 28
-11 56 -18 62 -8 6 -14 18 -14 26 0 8 -7 21 -15 29 -10 10 -15 35 -15 75 0 32
-4 59 -9 59 -19 0 -52 75 -58 132 -4 40 -13 69 -28 87 -12 14 -25 48 -30 76
-4 27 -17 68 -30 90 -13 22 -26 64 -30 93 -4 29 -15 61 -24 70 -26 27 -41 69
-41 119 0 36 -6 53 -25 73 -18 19 -27 45 -36 100 -7 41 -18 80 -24 85 -16 14
-41 82 -50 135 -4 24 -13 49 -19 55 -7 5 -21 46 -31 90 -12 48 -26 85 -37 93
-11 8 -18 26 -18 46 0 47 -28 134 -46 144 -10 6 -18 31 -23 68 -8 66 -25 104
-46 104 -8 0 -18 6 -22 13 -4 6 -24 20 -44 30 -33 17 -43 18 -112 6 -59 -10
-87 -10 -127 -1 -62 14 -66 14 -106 -3z m208 -479 c4 -6 8 -34 8 -62 0 -32 5
-54 13 -57 14 -5 32 -66 48 -162 6 -38 17 -74 23 -80 13 -10 23 -41 33 -102 3
-18 9 -33 14 -33 5 0 9 -8 9 -19 0 -10 7 -24 15 -31 8 -7 15 -26 15 -42 0 -51
22 -118 46 -141 19 -18 24 -32 24 -75 0 -54 16 -98 44 -121 9 -7 18 -38 22
-72 4 -37 15 -70 27 -86 24 -30 39 -110 26 -135 -9 -17 -39 -18 -404 -18 -365
0 -395 1 -403 18 -21 38 28 232 58 232 6 0 10 20 10 45 0 31 9 62 30 100 17
32 33 79 36 110 4 30 11 55 15 55 14 0 36 62 44 121 4 30 15 63 25 74 10 11
23 47 30 80 17 87 32 138 46 155 7 8 15 51 19 95 3 44 13 96 21 116 22 50 82
70 106 35z"/>
<path d="M17379 7111 c-12 -17 -29 -31 -36 -31 -8 0 -13 -13 -13 -37 0 -21 0
-659 -1 -1418 l-1 -1380 21 -10 c11 -5 21 -19 23 -30 3 -20 8 -20 783 -22 764
-3 781 -3 810 17 51 33 59 38 77 44 23 7 35 123 19 178 -11 36 -18 42 -84 71
l-72 32 -540 -5 c-297 -3 -554 -2 -572 1 -17 4 -44 18 -60 33 -27 25 -28 29
-24 99 8 129 6 740 -3 798 -8 53 -7 57 18 76 14 12 26 30 26 42 l0 21 524 0
c288 0 538 3 555 6 l31 7 0 126 c0 123 -1 128 -25 149 l-25 22 -529 0 -529 0
-12 30 c-7 17 -20 34 -28 39 -15 8 -15 18 -4 80 15 91 16 508 1 583 -10 48 -9
62 7 97 30 70 14 68 609 61 l530 -6 35 27 35 26 3 127 3 127 -35 14 c-19 8
-36 20 -38 26 -3 8 -28 8 -98 -1 -102 -12 -1195 -8 -1302 5 -55 7 -57 6 -79
-24z"/>
<path d="M11652 2585 c-23 -14 -53 -25 -66 -25 -52 0 -88 -13 -96 -35 -5 -14
-21 -26 -39 -30 -20 -4 -31 -13 -31 -24 0 -10 -14 -23 -32 -32 -19 -8 -34 -23
-36 -34 -2 -11 -13 -25 -25 -30 -12 -6 -23 -21 -25 -35 -2 -14 -8 -29 -13 -34
-5 -6 -9 -18 -9 -28 0 -9 -9 -22 -20 -28 -19 -10 -20 -21 -20 -161 0 -137 2
-151 18 -156 12 -3 23 -23 33 -56 10 -35 23 -55 37 -62 12 -5 22 -19 22 -31 0
-13 11 -25 33 -35 20 -9 33 -22 35 -36 3 -19 10 -23 38 -23 27 0 34 -4 34 -20
0 -22 28 -36 97 -49 23 -5 54 -16 67 -25 25 -16 100 -22 130 -10 9 3 16 12 16
20 0 10 13 14 42 14 47 0 128 35 128 55 0 8 13 15 33 17 26 2 33 8 35 30 2 20
10 28 32 33 19 4 30 13 32 28 2 12 15 28 30 35 21 10 28 22 34 58 4 26 2 50
-3 55 -6 6 -31 7 -61 3 -50 -6 -51 -7 -62 -53 -10 -41 -16 -48 -55 -66 -25
-11 -48 -27 -51 -37 -3 -9 -20 -23 -39 -29 -18 -7 -38 -23 -44 -36 -10 -22
-15 -23 -127 -23 -105 0 -116 2 -121 19 -3 10 -23 27 -45 37 -22 10 -48 29
-59 43 -11 14 -34 31 -50 38 -16 6 -29 19 -29 28 0 26 -29 75 -45 75 -8 0 -15
2 -15 4 0 20 -22 116 -31 133 -9 17 -8 31 5 63 9 22 16 55 16 73 0 22 10 41
30 61 17 17 34 44 38 60 5 21 18 36 40 45 18 8 32 22 32 31 0 16 67 50 97 50
7 0 17 9 23 20 10 18 21 20 115 20 94 0 106 -2 117 -20 7 -11 30 -25 52 -31
22 -6 54 -27 77 -50 21 -21 42 -39 47 -39 5 0 15 -20 21 -44 10 -40 15 -45 53
-58 75 -25 86 -13 71 75 -4 27 -12 41 -28 47 -12 5 -25 20 -29 35 -5 18 -15
27 -36 32 -23 4 -30 11 -30 29 0 17 -6 24 -19 24 -30 0 -51 11 -51 26 0 20
-38 37 -103 45 -37 4 -63 13 -71 24 -21 29 -94 29 -144 0z"/>
<path d="M5620 2575 c-19 -7 -61 -14 -93 -14 -51 -1 -59 -4 -67 -25 -5 -13
-21 -28 -37 -34 -26 -9 -49 -29 -127 -116 -14 -16 -26 -39 -26 -52 0 -16 -7
-24 -22 -26 -29 -4 -37 -44 -37 -204 -1 -166 6 -213 34 -224 14 -5 25 -20 28
-38 4 -18 14 -33 27 -37 11 -3 20 -13 20 -20 0 -8 16 -27 35 -42 19 -15 35
-33 35 -40 0 -6 14 -13 32 -15 25 -2 34 -9 38 -28 6 -26 43 -38 122 -39 20 -1
43 -7 50 -14 26 -26 50 -28 92 -8 23 10 67 22 99 26 50 6 59 10 72 36 10 19
23 29 38 29 30 0 157 129 157 159 0 12 6 21 15 21 18 0 31 24 40 75 4 22 14
61 22 87 14 44 13 53 -12 162 -23 98 -30 116 -46 116 -14 0 -19 7 -19 30 0 23
-14 43 -60 90 -34 33 -72 63 -86 66 -13 3 -33 19 -45 35 -18 26 -27 29 -72 29
-30 0 -60 7 -71 15 -24 18 -89 18 -136 0z m160 -100 c7 -8 31 -20 54 -27 51
-14 66 -25 66 -49 0 -14 7 -19 25 -19 19 0 26 -7 33 -32 6 -26 14 -34 35 -36
23 -3 27 -8 27 -33 0 -30 23 -75 48 -95 10 -7 14 -34 14 -89 -1 -66 -4 -81
-20 -94 -27 -22 -42 -54 -42 -89 0 -24 -6 -32 -29 -40 -18 -6 -31 -20 -35 -36
-4 -17 -13 -26 -26 -26 -12 0 -25 -10 -32 -25 -6 -14 -22 -28 -35 -31 -13 -4
-33 -18 -44 -32 -19 -25 -26 -27 -125 -30 -93 -4 -108 -2 -124 14 -36 36 -50
44 -80 50 -23 5 -30 12 -30 29 0 16 -8 24 -32 31 -23 7 -34 17 -36 32 -2 13
-14 27 -26 32 -17 6 -26 22 -36 63 -9 39 -18 57 -31 60 -17 5 -19 16 -19 92 0
78 2 87 20 92 12 3 20 14 20 27 0 12 4 26 9 32 5 5 11 20 13 34 2 17 10 26 26
28 15 2 22 10 22 26 0 28 18 46 47 46 18 0 23 6 23 24 0 22 7 26 56 37 34 8
59 19 65 31 8 15 23 18 98 18 66 0 92 -4 101 -15z"/>
<path d="M13320 2578 c-14 -7 -54 -14 -90 -17 -53 -5 -67 -10 -74 -27 -5 -12
-26 -27 -45 -34 -48 -17 -137 -112 -145 -155 -5 -25 -13 -35 -29 -37 -22 -3
-22 -5 -25 -210 l-2 -207 30 -16 c22 -11 30 -23 30 -41 0 -17 7 -28 20 -31 11
-3 20 -9 20 -14 0 -19 87 -99 108 -99 14 0 27 -10 36 -29 15 -28 50 -41 118
-41 15 0 43 -10 64 -22 l37 -22 41 21 c22 12 67 24 99 28 57 6 87 24 87 51 0
9 11 14 30 14 17 0 30 4 30 9 0 5 27 36 60 69 33 33 60 66 60 75 0 8 11 22 25
31 16 10 26 29 30 53 3 21 12 69 20 106 10 44 12 74 6 85 -5 10 -14 50 -19 90
-11 75 -24 102 -48 102 -8 0 -14 10 -14 23 0 44 -114 167 -155 167 -14 0 -24
10 -32 30 -11 29 -14 30 -70 30 -35 1 -66 6 -77 15 -23 17 -90 19 -126 3z
m154 -103 c6 -8 36 -23 66 -33 40 -14 56 -24 58 -39 2 -13 13 -24 28 -27 17
-5 26 -16 30 -36 4 -18 13 -30 26 -32 14 -2 25 -19 39 -58 10 -30 26 -60 34
-66 11 -8 15 -32 15 -94 0 -72 -2 -82 -19 -87 -14 -3 -22 -21 -32 -64 -9 -41
-19 -61 -32 -65 -10 -3 -22 -16 -27 -30 -5 -13 -21 -26 -35 -30 -15 -4 -28
-15 -31 -29 -3 -14 -16 -26 -31 -30 -14 -3 -37 -17 -51 -31 -36 -33 -55 -37
-160 -33 -81 4 -90 6 -113 31 -14 15 -37 30 -52 33 -17 5 -29 16 -33 31 -3 13
-15 24 -27 26 -12 2 -28 15 -35 30 -7 15 -21 30 -32 33 -11 4 -20 14 -20 23 0
27 -41 102 -56 102 -11 0 -14 20 -14 93 0 81 2 94 20 105 11 7 20 19 20 27 0
8 4 15 10 15 5 0 12 16 16 35 4 25 12 35 24 35 12 0 21 10 25 30 5 24 14 32
35 37 20 3 30 12 32 27 2 16 17 25 61 39 32 11 61 25 64 33 8 21 181 20 197
-1z"/>
<path d="M9100 2560 c-31 -4 -35 -8 -35 -35 0 -22 5 -31 20 -34 11 -2 26 -12
34 -23 14 -21 25 -21 117 0 37 8 43 6 60 -14 10 -13 24 -23 31 -24 6 0 19 -7
27 -16 14 -13 16 -53 16 -287 0 -150 -5 -300 -10 -335 -17 -102 21 -173 63
-121 17 21 18 47 17 359 -1 184 -1 349 -1 365 1 42 49 59 158 58 71 -1 83 1
88 17 3 10 15 20 25 23 22 6 28 51 9 63 -14 8 -566 12 -619 4z"/>
<path d="M3873 2548 c-31 -41 -34 -77 -31 -463 2 -314 5 -394 16 -412 17 -28
42 -30 49 -4 3 11 11 22 19 25 17 7 19 57 2 74 -9 9 -7 17 9 34 12 13 26 35
32 51 l11 27 147 0 c144 0 149 1 175 25 14 13 39 27 54 31 16 4 31 17 37 34 6
15 22 31 37 37 22 8 29 18 34 55 4 29 16 54 31 68 22 21 25 32 25 98 0 62 -3
75 -18 79 -16 4 -42 63 -42 97 0 8 -12 21 -27 28 -16 7 -29 23 -31 36 -2 14
-10 22 -24 22 -11 0 -38 16 -61 35 l-41 35 -197 0 c-145 0 -199 -3 -206 -12z
m350 -96 c44 -12 67 -26 97 -60 22 -24 40 -52 40 -63 0 -12 7 -19 19 -19 37 0
37 -170 0 -191 -11 -5 -19 -18 -19 -28 0 -10 -15 -26 -35 -37 -20 -10 -35 -26
-35 -36 0 -14 -8 -18 -35 -18 -24 0 -35 -5 -35 -15 0 -8 -6 -15 -14 -15 -8 0
-16 -5 -18 -11 -4 -13 -143 -25 -182 -15 -13 3 -28 16 -31 27 -4 12 -19 32
-32 43 -25 22 -25 24 -26 187 0 112 4 172 12 188 19 34 48 60 76 67 14 3 28
10 31 16 8 12 114 1 187 -20z"/>
<path d="M16143 2513 c-13 -32 -15 -82 -12 -333 l4 -295 -27 -3 c-37 -4 -75
23 -99 71 -11 21 -29 42 -40 44 -10 3 -19 14 -19 25 0 12 -12 24 -35 34 -22 9
-35 21 -35 33 0 12 -11 23 -29 29 -18 6 -31 20 -35 35 -4 16 -14 27 -28 29
-14 2 -24 12 -28 28 -4 16 -14 26 -29 28 -14 2 -26 14 -33 32 -5 16 -19 32
-30 36 -27 8 -98 78 -98 97 0 8 -11 18 -24 21 -15 4 -28 17 -34 35 -9 24 -17
30 -56 35 -25 4 -49 5 -53 3 -5 -3 -9 -184 -11 -404 -1 -304 1 -404 10 -422
17 -31 29 -30 49 5 13 25 15 64 8 314 -3 157 -4 291 -2 297 12 30 107 6 116
-28 3 -11 11 -19 19 -19 7 0 23 -15 35 -33 28 -41 282 -298 348 -352 28 -23
58 -44 68 -48 9 -3 17 -13 17 -21 0 -8 18 -33 39 -55 35 -36 45 -41 85 -41 57
0 71 21 62 89 -10 63 -10 68 3 136 6 33 11 174 11 317 l0 256 -39 31 c-21 17
-44 31 -50 31 -7 0 -19 -17 -28 -37z"/>
<path d="M6896 2518 c-14 -19 -16 -76 -16 -419 0 -256 4 -407 11 -427 7 -20
21 -34 41 -41 33 -12 594 -16 622 -5 10 4 16 18 16 35 0 34 23 32 -287 29
-121 -1 -231 1 -242 5 -13 4 -21 15 -21 30 0 13 -10 29 -24 39 -32 21 -40 62
-27 144 6 37 12 183 14 325 4 215 2 257 -10 257 -7 0 -17 8 -20 18 -14 36 -36
40 -57 10z"/>
<path d="M10442 2509 c-10 -16 -13 -107 -12 -415 1 -372 5 -444 29 -444 6 0
27 11 47 25 l36 25 2 394 1 395 -38 20 c-48 26 -49 26 -65 0z"/>
<path d="M8291 2507 l-24 -12 0 -401 c0 -221 3 -406 6 -411 4 -6 21 -13 38
-17 59 -11 58 -13 59 430 0 298 -3 403 -12 412 -15 15 -37 15 -67 -1z"/>
<path d="M14543 2503 c-10 -4 -13 -95 -13 -408 0 -452 -3 -435 69 -415 l41 11
0 400 0 399 -26 10 c-27 11 -51 12 -71 3z"/>
</g>
</svg>
