<svg width="24" height="24" viewBox="0 0 23 19" fill="none" xmlns="http://www.w3.org/2000/svg">
<path d="M1.27791 4.52086V3.28789C1.27791 3.06992 1.36766 2.86095 1.52738 2.70683C1.68709 2.55252 1.90386 2.46592 2.12975 2.46592H20.8704C21.0963 2.46592 21.313 2.55253 21.4728 2.70683C21.6325 2.86095 21.7222 3.06993 21.7222 3.28789V4.52086H1.27791ZM20.4445 2.05493V0.776828C20.4445 0.570785 20.3597 0.373177 20.2087 0.227514C20.0577 0.0818314 19.8529 0 19.6394 0H3.36085C3.14732 0 2.94253 0.0818314 2.79158 0.227514C2.6406 0.373196 2.55579 0.570799 2.55579 0.776828V2.05493H20.4445ZM23 5.81145V18.1204C23 18.3536 22.904 18.5775 22.733 18.7424C22.5621 18.9073 22.3303 19 22.0885 19H0.911544C0.669678 19 0.437893 18.9073 0.266964 18.7424C0.0960249 18.5775 0 18.3536 0 18.1204V5.81145C0 5.57826 0.0960249 5.35441 0.266964 5.18948C0.437903 5.02453 0.669688 4.93187 0.911544 4.93187H22.0885C22.3303 4.93187 22.5621 5.02453 22.733 5.18948C22.904 5.35442 23 5.57826 23 5.81145ZM13.1312 8.40894C12.3857 8.02162 11.7396 7.47818 11.2402 6.8184V13.3529C10.879 13.1898 10.4848 13.1055 10.0859 13.1063C8.74855 13.1063 7.66666 14.0104 7.66666 15.1366C7.66666 16.2628 8.7486 17.1628 10.0859 17.1628C11.4234 17.1628 12.5009 16.2546 12.5009 15.1366V10.2663C15.4823 11.3389 14.3365 13.4475 14.3365 13.4475C16.6663 11.6307 14.3365 9.01284 13.1312 8.40852L13.1312 8.40894Z" fill="#B1B1B1"/>
</svg>
