<?xml version="1.0" encoding="UTF-8"?>
<svg width="24px" height="26px" viewBox="0 0 24 26" version="1.1" xmlns="http://www.w3.org/2000/svg" xmlns:xlink="http://www.w3.org/1999/xlink">
    <title>xxxhdpi/Notification</title>
    <g id="Page-1" stroke="none" stroke-width="1" fill="none" fill-rule="evenodd">
        <g id="Settings_screen-Copy" transform="translate(-21.000000, -346.000000)" stroke="#727172" stroke-width="1.5">
            <g id="Notification" transform="translate(22.000000, 347.000000)">
                <path d="M0,21.1475164 L1.72799792,18.9341933 C3.33486433,16.8760226 4.20766277,14.3397989 4.20766277,11.7286524 L4.20766277,9.86250252 C4.20766277,6.60645937 6.84720727,3.96691487 10.1032504,3.96691487 L11.9207053,3.96691487 C15.1767484,3.96691487 17.8162929,6.60645937 17.8162929,9.86250252 L17.8162929,11.7467655 C17.8162929,14.3468092 18.6816953,16.8728963 20.2760511,18.9267359 L22,21.1475164 L22,21.1475164 L0,21.1475164 Z" id="Path-16" stroke-linejoin="round"></path>
                <path d="M9.36499384,3.96691487 L9.36499384,1.65930473 C9.36499384,0.742896034 10.1078899,1.68341547e-16 11.0242986,0 C11.9407073,-1.68341547e-16 12.6836033,0.742896034 12.6836033,1.65930473 L12.6836033,3.96691487 L12.6836033,3.96691487" id="Path-19"></path>
                <path d="M9.2750365,20.9462692 L9.2750365,22.0202232 C9.2750365,23.1136237 10.1614128,24 11.2548133,24 C12.3482139,24 13.2345902,23.1136237 13.2345902,22.0202232 L13.2345902,20.9462692 L13.2345902,20.9462692" id="Path-20"></path>
            </g>
        </g>
    </g>
</svg>