<svg width="20" height="28" viewBox="0 0 20 28" xmlns="http://www.w3.org/2000/svg">
    <g fill="#ABA9A9" fill-rule="nonzero">
        <path d="M9.995 20.553c.443 0 .803-.36.803-.802v-3.323a.802.802 0 1 0-1.605 0v3.323c0 .442.36.802.802.802z"/>
        <path d="M19.189 8.798h-3.797V4.891C15.392 2.194 12.972 0 9.995 0 7.02 0 4.6 2.194 4.6 4.891v3.907H.802A.802.802 0 0 0 0 9.601v10.258c0 4.147 3.374 7.52 7.52 7.52h4.95c4.147 0 7.521-3.373 7.521-7.52V9.601a.803.803 0 0 0-.802-.803zM6.203 4.891c0-1.812 1.701-3.287 3.792-3.287 2.092 0 3.793 1.475 3.793 3.287v3.907H6.203V4.891zm12.184 14.968a5.923 5.923 0 0 1-5.917 5.916H7.52a5.923 5.923 0 0 1-5.916-5.916v-9.456h16.783v9.456z"/>
    </g>
</svg>
