<svg width="126" height="116" viewBox="0 0 126 116" fill="none" xmlns="http://www.w3.org/2000/svg">
<path fill-rule="evenodd" clip-rule="evenodd" d="M63 114L113.743 63.6636H113.707C113.713 63.6577 113.72 63.6518 113.726 63.6458C113.732 63.6402 113.738 63.6346 113.743 63.6289C114.592 62.8195 115.401 61.9691 116.169 61.0808C121.67 54.7108 125 46.3948 125 37.297C125 17.2507 108.833 1 88.8901 1C79.6062 1 71.1407 4.52169 64.7434 10.3086C64.1437 10.8511 63.5623 11.4134 63 11.9946C62.4377 11.4134 61.8562 10.8511 61.2566 10.3086C54.8593 4.52169 46.3938 1 37.1099 1C17.167 1 1 17.2507 1 37.297C1 46.3948 4.32984 54.7108 9.83144 61.0808C10.5986 61.9691 11.4081 62.8195 12.2566 63.6289C12.2625 63.6346 12.2684 63.6402 12.2743 63.6458C12.2805 63.6517 12.2867 63.6577 12.293 63.6636H12.2566L63 114ZM18.5282 66.2465H18.7557L14.0737 61.7925C7.61199 55.6453 3.58333 46.9477 3.58333 37.297C3.58333 18.6641 18.6068 3.58286 37.1099 3.58286C46.5333 3.58286 55.0473 7.48923 61.1431 13.7903L63 15.7097L64.8568 13.7903C70.9527 7.48923 79.4667 3.58286 88.8901 3.58286C107.393 3.58286 122.417 18.6641 122.417 37.297C122.417 46.9477 118.388 55.6453 111.926 61.7925L107.244 66.2465H107.472L63 110.362L18.5282 66.2465Z" fill="black" stroke="black" stroke-width="5"/>
</svg>
