<svg width="22" height="19" viewBox="0 0 22 19" fill="none" xmlns="http://www.w3.org/2000/svg">
<path d="M1 2.78284V17.2727C1 17.7497 1.44772 18.1363 2 18.1363H20C20.5523 18.1363 21 17.7497 21 17.2727V5.56566C21 5.08869 20.5523 4.70203 20 4.70203H18.2222" stroke="#595859" stroke-width="1.5" stroke-linejoin="round"/>
<path d="M1 2.78284C1 1.7229 1.99492 0.863647 3.22222 0.863647H17.6147C18.2571 0.863647 18.7778 1.31335 18.7778 1.86808V4.70203H3.22222C1.99492 4.70203 1 3.84278 1 2.78284Z" stroke="#595859" stroke-width="1.5"/>
<path d="M11 11.4191C11 9.82928 12.4924 8.54041 14.3333 8.54041H21V14.298H14.3333C12.4924 14.298 11 13.0091 11 11.4191Z" stroke="#595859" stroke-width="1.5"/>
<path d="M15.1667 11.4191C15.1667 11.8167 14.7936 12.1389 14.3333 12.1389C13.8731 12.1389 13.5 11.8167 13.5 11.4191C13.5 11.0217 13.8731 10.6995 14.3333 10.6995C14.7936 10.6995 15.1667 11.0217 15.1667 11.4191Z" fill="#595859"/>
</svg>
